<svg width="1440" height="138" fill="none" xmlns="http://www.w3.org/2000/svg"><path d="M938 128c0 64.617-51.935 117-116 117s-116-52.383-116-117c0-64.617 51.935-117 116-117s116 52.383 116 117z" fill="#FFBF00"/><path d="M-215 145C355.407 118.661 375.612 19.389 548.133 19.389c172.521 0 187.286 85.312 326.391 85.312C1013.63 104.701 998.475 0 1177.99 0c146.1 0 278.6 125.641 370.69 125.641 92.09 0 8.93 6.204 77.32 17.062-279.76 0-1841 2.297-1841 2.297z" fill="#192480"/><path d="M1637 145c-60.31-32.791-116.67-15.317-233.19-27.048C1287.29 106.222 1238.31 58 1075.14 58c-163.171 0-207.055 54.209-419.135 54.209C443.925 112.209 283.842 58 160.482 58 37.122 58-4.358 92.441-89.792 112.209-175.227 131.977-266.394 100.611-327 145h1964z" fill="#0688FA"/></svg>
