<svg width="1440" height="505" fill="none" xmlns="http://www.w3.org/2000/svg"><mask id="a" maskUnits="userSpaceOnUse" x="-55" y="-313" width="1532" height="818"><path d="M1477 253L-55 505v-818h1532v566z" fill="#F0F8FF"/></mask><g mask="url(#a)"><path d="M1477 253L-55 505v-818h1532v566z" fill="#FFF5F5"/><path d="M439.677 420l.206.528.117.527-.059.528-.322.528.352.528-.176.527-.264.528.322.528-.146.528.029.527-.117.528v.528l-.323.498.118.557-.088.499.205.557-.176.498-.147.528.176.557-.088.498.352.557-.557.499.147.528-.118.527-.175.499.205.557.146.557-.351.498.175.528.088.557-.205.498-.205.499-.147.527-.029.528-.088.528.147.528-.352.498.322.586-.146.499-.205.498.058.557.117.528-.586.469.029.528-.234.498.029.528.264.586-.117.528v.528l-.059.528-.264.469.03.557-.118.527.03.528-.469.44-.264.498.351.616-.117.498-.41.47-.147.498.029.528.147.586-.616.411.088.557.03.527.058.557-.146.528-.059.528-.557.41-.176.499.088.557-.029.528-.059.527-.381.469-.235.469-.058.528-.059.528-.146.528.146.586-.088.528-.381.44v.527l-.147.528-.293.44-.322.469-.147.498-.264.469.206.616v.557l-.645.352-.03.528v.557l.03.586-.323.44-.264.469-.146.498-.206.499-.381.44.205.615-.381.44.176.586-.44.411.059.586-.528.381.059.587-.323.439-.263.47.088.586-.499.381-.088.528-.352.44-.234.469.176.645-.616.293.059.616-.293.439-.382.411.264.674-.528.352-.234.469-.117.528-.147.498-.352.44-.322.44.117.615-.352.44-.058.528-.294.44v.586l-.703.264.088.645-.176.498-.147.499-.293.439-.528.323.118.645-.176.498-.235.499-.234.469-.704.234.029.616-.469.352.029.586-.263.469-.499.323V494l-.234.469-.557.293.058.616-.264.469-.264.469-.41.352-.147.527-.175.499-.616.264-.088.557v.615l-.44.352-.293.44-.323.41-.381.411-.029.586-.147.528-.351.41-.44.352-.059.587-.44.322-.586.264.117.704-.264.469-.322.41-.528.293-.41.352v.645l-.528.264-.235.469-.029.645-.557.235.029.674-.498.293-.352.381-.058.616-.763.117-.293.44-.205.498-.293.44-.176.528-.528.264.059.674-.381.381-.645.176.029.675-.645.205-.176.498-.323.44-.381.352-.029.645-.645.176-.235.469-.469.293-.293.44-.029.674-.704.117-.146.528-.47.323v.674l-.469.293-.527.264-.03.674-.615.147-.294.44-.351.381-.323.41-.146.587-.616.176-.088.615-.586.176-.352.411-.206.527-.293.44-.557.205-.293.44-.528.235-.264.469-.322.41-.41.352-.323.41-.235.499-.674.117-.352.381v.733l-.469.264-.615.147-.235.527-.205.528-.557.176-.469.264-.411.352-.029.733-.352.381-.44.322-.498.235-.381.352-.206.557-.645.058-.175.616h-.704l-.323.44-.117.645-.586.117-.176.616-.528.205-.264.499-.498.234-.44.264-.469.293-.498.205-.382.381-.205.587-.498.205-.352.411-.323.439-.586.118-.352.41-.264.528-.527.176-.587.117-.117.704-.762-.147-.118.733-.703-.059-.235.557-.41.323-.381.381-.44.293-.352.44-.381.352-.528.146-.498.206-.293.498-.499.205-.615.088-.206.616h-.645l-.381.381-.322.44-.411.352-.352.381-.733-.118-.234.616-.323.44-.674-.059-.44.323-.352.352-.439.293-.469.293-.44.264-.499.205-.41.352-.557.117-.205.645-.469.264-.616-.029-.352.41-.557.117-.176.763-.645-.088-.44.293-.381.381-.381.411-.704-.118-.205.645-.703-.117-.352.41-.44.323-.498.147-.44.322-.557.059-.44.293-.352.44-.469.264-.469.234-.381.411-.675-.176-.439.293-.381.469-.528.088-.293.616-.675-.147-.352.41-.498.235h-.586l-.294.586h-.586l-.528.088-.439.293-.352.528-.587-.029-.381.469-.469.235-.557.029-.469.234h-.586l-.352.47-.499.205-.615-.118-.352.557-.528.118-.469.205-.44.293-.557.03-.557.058-.322.645-.528.117-.41.323-.645-.176-.47.264-.557.029-.41.352-.498.176-.411.44-.498.146-.469.264-.499.205h-.557l-.469.264-.616-.234-.469.322-.498.176-.499.176-.41.381-.616-.117-.439.322-.47.206-.557.058-.498.147-.498.117-.528.147-.411.41h-.557l-.586-.058-.411.469-.586-.176-.469.264-.528.029-.439.41-.558-.058-.41.557-.498.117-.587-.117-.528.029-.498.205-.498.206-.528.029-.44.381-.528.117-.557-.088-.586-.117-.469.235-.499.146-.469.381-.586-.146-.469.234-.469.323-.557-.088-.528.029-.586-.117-.499.146-.41.645-.587-.293h-.527l-.528.147-.528-.059-.44.587-.527.058-.528.03-.586-.294-.499.206-.498.146-.557-.029-.499.147-.469.41-.557-.088-.557-.205-.498.205-.469.469-.557-.234-.557-.059-.528.059-.499.146-.498.235-.557-.235-.528.029-.528.03-.469.557-.557-.147-.557-.264-.498.235-.499.41-.527.118-.557-.323-.499.293-.527.03h-.528l-.528-.118-.498.352-.557-.352-.528.294-.528-.206-.528.03-.527-.059-.528.352-.498.088-.557-.176h-.528l-.528.205-.498.117-.557-.41h-.528l-.528.088-.528.146-.527-.351-.528.234-.528-.058-.528.41-.527-.498H283l-.528.058-.527.03-.528.322-.528-.41-.528.293-.527.146-.528.059-.528-.117-.528-.176-.527.029-.499-.41-.527.029-.558.41-.498-.322-.528.029-.527.088h-.557l-.528.176-.499-.381-.557.293-.498-.381-.557.323-.498-.499-.528.088-.528-.029-.498-.205-.557.234-.528.059-.528-.264-.557.293-.498-.205-.499-.411-.527.206-.528-.206-.528.059-.528.059-.498-.44-.557.293-.528.029-.469-.498-.557.029-.498-.058-.499-.294h-.528l-.527-.058-.528-.059-.528-.029-.527-.029-.528-.059-.528-.029-.469-.382-.557.059-.499-.205-.586.381-.528-.059-.469-.351-.527-.059-.47-.323-.615.264-.411-.557-.498-.146-.586.117-.558.146-.469-.351-.527-.059-.469-.293-.557.058-.587.147-.381-.704-.616.411-.41-.528-.528-.088-.586.176-.469-.322-.499-.176-.586.176-.381-.645-.645.381-.499-.176-.439-.381-.616.176-.381-.557h-.557l-.469-.264-.587.117-.469-.235-.498-.176-.557-.029-.499-.176-.498-.088-.469-.351-.469-.176-.557-.088-.44-.294-.587.088-.498-.234-.44-.323-.498-.146-.528-.088-.557-.03-.322-.674-.528-.058-.499-.206-.439-.264-.528-.117-.528-.117-.498-.117-.528-.147-.498-.117-.411-.44-.528-.147-.615.176-.44-.322-.528-.088-.469-.235-.44-.322-.41-.411-.528-.117-.557-.029-.528-.088-.498-.205-.498-.206-.411-.322-.381-.44-.469-.235-.616.059-.528-.117-.41-.381-.557-.03-.381-.469-.352-.469-.616.059-.439-.264-.382-.469-.674.176-.498-.176-.44-.264-.264-.645-.616.029-.381-.439-.528-.088-.439-.323-.528-.117-.381-.381-.645.088-.323-.557-.381-.411-.645.117-.234-.645-.616-.029-.44-.264-.616.03-.381-.411-.527-.117-.294-.557-.586-.059-.322-.528-.382-.351-.703.146-.147-.762-.586-.088-.528-.147-.293-.498-.528-.147-.352-.439-.469-.264-.645.029-.498-.205-.205-.645-.382-.381-.732.176-.323-.47-.322-.498-.382-.352h-.645l-.293-.498-.469-.235-.381-.381-.733.147-.323-.469-.234-.557-.674.029-.147-.733-.762.147-.088-.733-.645-.059-.235-.528-.557-.146-.557-.118-.498-.264-.205-.586-.44-.264-.293-.498h-.675l-.264-.499-.498-.234-.176-.616-.498-.205-.44-.323-.528-.175-.322-.44-.587-.118-.117-.703-.733.058-.469-.263-.411-.323-.205-.586-.293-.469h-.674l-.059-.763-.733.059-.059-.733h-.703l-.205-.557-.616-.088-.44-.322-.176-.587-.557-.176-.117-.674-.557-.147-.528-.234-.234-.499-.323-.439-.234-.499-.499-.234-.557-.206-.234-.527-.352-.381-.499-.235-.322-.41-.264-.499-.674-.059-.118-.615-.234-.528-.44-.322-.469-.264-.616-.118-.088-.645-.352-.41-.557-.205-.058-.675-.645-.117-.323-.41-.41-.323-.381-.381-.176-.557-.352-.381-.645-.147-.117-.586-.528-.235-.088-.615-.528-.264-.176-.528-.527-.234-.411-.352-.117-.587-.323-.439-.234-.499-.733-.058-.381-.382-.264-.469-.117-.586-.323-.411-.44-.322-.176-.528-.293-.44-.44-.322-.498-.293-.205-.499-.323-.41-.381-.381-.264-.44-.41-.352-.235-.498-.527-.264-.059-.616-.616-.176-.058-.645-.206-.498-.264-.44-.498-.293-.176-.528-.264-.469-.234-.469-.293-.44-.47-.293-.117-.586-.498-.294-.528-.293.088-.674-.704-.147-.263-.469-.352-.41-.088-.557-.381-.411-.206-.469-.41-.381v-.616l-.205-.498-.352-.41-.293-.411-.147-.557-.645-.205-.381-.381-.235-.469-.205-.499-.322-.44-.352-.381.176-.733-.44-.352-.176-.527-.44-.323-.469-.352-.117-.527-.323-.44.059-.616-.469-.352-.44-.381.205-.703-.645-.235-.322-.44-.205-.469v-.616l-.147-.527-.469-.352.117-.645-.381-.381-.44-.381-.351-.411.087-.645-.557-.293-.029-.586-.293-.44-.411-.381v-.587l-.469-.381.088-.615-.176-.499-.351-.41-.088-.557-.616-.294.059-.586-.206-.498-.263-.469.087-.587-.439-.381-.088-.557-.557-.322.293-.704-.762-.264.351-.704-.733-.264v-.586l-.146-.498-.411-.411-.088-.527.088-.616-.176-.469-.469-.411-.351-.41.263-.674-.088-.528-.322-.44v-.557l-.205-.498-.44-.382-.323-.469-.322-.439.264-.645-.176-.499-.293-.44-.118-.527-.527-.382.381-.674-.117-.528-.235-.469-.674-.352v-.527l-.205-.499.117-.586-.205-.498-.088-.528.058-.557-.381-.44-.205-.498-.176-.499-.176-.498-.088-.499.176-.615-.469-.411.176-.586-.264-.469-.176-.499-.498-.439.322-.616-.205-.499-.235-.469.118-.586-.323-.44.147-.586-.088-.528-.675-.381.44-.645-.146-.498-.557-.411-.118-.528.264-.586-.381-.469-.147-.499.118-.557-.381-.469.205-.586-.264-.469.176-.586-.117-.499-.206-.498v-.557l-.205-.499.117-.527-.176-.528.059-.528-.616-.44.294-.586-.352-.469-.147-.528.264-.557-.264-.498.293-.587-.41-.469-.117-.528-.088-.498.029-.528.088-.557-.323-.498-.117-.499.235-.557-.147-.527-.176-.499.205-.557.03-.528-.117-.527-.44-.499v-.527l.264-.557-.206-.499-.176-.528.264-.527-.205-.528.117-.528-.029-.528.117-.527-.146-.528-.176-.528.117-.527-.381-.528.469-.528.029-.528-.088-.527-.322-.528-.059-.528-.117-.528.469-.527.059-.528-.352-.528-.029-.528-.147-.527.059-.528.322-.528-.293-.527.41-.528-.058-.528-.059-.528-.117-.527.322-.528-.41-.528.352-.528.088-.527-.088-.528-.381-.528.205-.528.029-.527v-.528l-.029-.528.234-.498-.029-.557.029-.528.206-.498-.411-.557.293-.499.03-.527-.088-.558.381-.498-.381-.557.557-.469-.352-.557-.029-.557.176-.499.263-.498-.293-.557v-.528l.323-.498.088-.528.058-.528.293-.498-.029-.528-.322-.586.498-.469-.029-.528-.205-.557.439-.469-.293-.587.586-.439.059-.528-.381-.586.117-.528.03-.528.088-.498.117-.528.029-.528.147-.527.439-.44-.293-.587.528-.439.176-.499-.469-.645.146-.498.323-.469.293-.499.029-.527-.029-.528.44-.469-.029-.528.263-.469-.263-.616.439-.44.147-.498.059-.528-.059-.557.205-.498-.058-.557.41-.44.205-.498-.322-.616.498-.411.235-.498-.147-.586.235-.469.205-.499.234-.498.03-.528.058-.528.323-.44.029-.557.03-.557.175-.469-.088-.586.558-.381-.03-.557.499-.411-.088-.557.293-.469.146-.528-.117-.586.323-.44.381-.439-.235-.616.587-.352-.059-.586-.029-.587.293-.44.322-.439-.029-.587.059-.527.557-.382.205-.469.293-.439-.264-.675.616-.322.234-.469.03-.557.176-.499.264-.469.351-.44-.293-.674.704-.293-.323-.704.352-.41.235-.469.469-.382.117-.527.176-.499.117-.527.44-.382v-.586l.411-.381.029-.557.058-.557.616-.293-.117-.645.176-.499.352-.439.117-.499.381-.41.323-.44.351-.411-.117-.645.586-.293.294-.44v-.586l.088-.557.557-.293v-.616l.645-.234.117-.557.088-.528.322-.44.411-.381-.117-.674.439-.352.03-.587.439-.351.235-.47.322-.439.323-.411.235-.469.205-.498.469-.323-.059-.645.235-.498.44-.352.41-.352.205-.498.44-.352.088-.557.322-.411.264-.469.294-.439.117-.557.528-.294.351-.41.323-.381.058-.587.264-.469.587-.234v-.675l.645-.176.117-.557.088-.586.41-.352.557-.264.323-.41v-.645l.293-.44.528-.264v-.674l.703-.117.352-.411.264-.469.176-.498.323-.44.381-.352.469-.293v-.674l.586-.206.059-.645.176-.527.44-.323.263-.469.323-.41.498-.294.118-.557.82-.029.059-.616.557-.234.352-.411.293-.41.088-.645.323-.381.381-.381.469-.294.498-.263.264-.47.176-.557.323-.41.557-.205.381-.381.146-.587.44-.322.264-.44.264-.469.44-.352.439-.293.499-.264.234-.498.557-.176v-.763l.645-.088.118-.645.674-.029.352-.41.205-.528.293-.469.704-.059.264-.469.264-.498.293-.44.498-.264.323-.41.381-.352.352-.411.586-.117.352-.44.381-.352.293-.469.381-.351.264-.47.645-.088.147-.615.469-.264.352-.411.645-.058.439-.293.352-.411.293-.469.294-.469.381-.352.41-.322.411-.381.615-.059.47-.264.146-.645.469-.235.469-.293.44-.293.44-.264.264-.557.322-.44.381-.322.792.147.322-.44.382-.381.351-.44.47-.205.527-.176.147-.733.674.058.323-.439.586-.088.381-.411.235-.557.557-.117.264-.557h.645l.176-.675.762.176.293-.498.323-.469.527-.147.469-.264.235-.586.616-.059h.615l.264-.557.352-.439.498-.176.411-.352.381-.381H200l.498-.206.293-.527.381-.411.469-.234h.616l.44-.264.469-.264.293-.557.616.059.557-.088.147-.821.703.146.235-.645.498-.176.44-.293.44-.322.615.058.44-.293.44-.322.381-.381.704.146.264-.616.527-.088.528-.146.557-.088.469-.205.235-.733.469-.205.528-.147.615.029.264-.615.499-.206.674.206.264-.704.527-.117h.557l.47-.294.527-.087.323-.558.645.147.322-.616.528-.058.411-.44.644.176.352-.499.645.176.294-.674.703.323.44-.294.44-.293.469-.264.615.059.323-.586.645.205.469-.264.44-.293.41-.411.645.176.44-.264.381-.469.528-.146.469-.235.469-.293.616.176.381-.499.645.264.322-.703.587.117.44-.352.527-.088.616.147.469-.176.381-.616.587.117.498-.146.528-.117.498-.176.528-.059.528-.059.439-.381.587.147.469-.235.498-.205.499-.205.41-.528.528-.059.469-.205.557-.029.616.234.527-.058.47-.176.469-.293.439-.411.616.205.528-.029.469-.293.44-.44.557.03.557.058h.528l.527-.058.469-.352.528-.088.469-.205.528-.118.498-.234.528.029.557.029.469-.381.499-.088.586.205.528-.029h.527l.528-.088.44-.498.586.293.469-.44.587.293.498-.234.528.029.528-.058.498-.323.528.059.469-.469.586.439.499-.205.498-.205.557.029.499-.176.498-.264.586.499.499-.352.528.059.498-.352.557.146.498-.205.557.235.499-.381.528-.088.527.146.528-.176.498-.176.558.206.498-.206h.528l.557.264.527.088h.528l.528-.117h.528l.527-.235.499-.058.557.176.498-.499.528.088.528.147.527-.147.528.118.528-.206.528-.117h.527l.528.147.528-.03.528.323.527-.411.528.059.528.205.527.235.528-.264.528-.235.528.264.527-.117.528-.088.528.029.528.499.527-.03.528.088.528-.322.528.205h.527l.557-.381.499.44.527-.323.528.44.528-.293.528.234h.527l.499.294.528-.03.557-.293.527-.147.499.411.527.264.557-.44h.528l.499.381.527-.088.499.293.557-.146.498.352.557-.235.528-.147.498.47.499.146.557-.205.469.381.616-.44.498.147.557-.059.469.323h.528l.528.146.469.352.557-.059.586-.263.44.41.498.264.616-.411.498.264h.528l.469.294.469.351.528.118.557-.147.587-.205.498.205.528.059.41.615.616-.351h.528l.439.469h.528l.469.351.499.176.645-.381.498.117.469.323.499.205.557-.058.527.117.44.322.557-.029.528.117.44.411.469.234.557-.058.586-.059.469.235.528.088.41.439.616-.146.528.029.381.616.498.117.587-.059.469.206.498.176.587-.088.381.586.498.117.469.293.528.088.528.088.586-.117.352.616.616-.176.469.264.469.234.44.381.527.088.469.206.645-.176.382.41.469.264.469.234.498.176.674-.234.47.205.293.704.498.176.645-.206.528.118.352.557.586-.03.323.587.703-.293.44.263.41.44.47.205.439.294.557.058.382.469h.557l.469.264.469.235.557.058.528.118.351.498.381.44.616-.117.469.293.528.117.293.586.704-.205.352.469.381.411.586-.03.499.206.439.322.381.411.645-.147.264.645.44.293.469.264.675-.146.263.645.47.205.439.322.557.059.469.234.44.294.557.117.44.264.44.322.41.352.381.381.382.381.615-.029.293.557.44.293.675-.117.469.264.439.293.411.352.264.586.645-.029.293.498.352.411.439.322.616.03.528.117.293.528.469.234.381.381.323.44.44.323.557.117.557.146.322.411.352.44.41.322.675-.029.205.616.323.439.762-.117.146.704.352.352.411.351.791-.176.264.499.323.469.381.381.44.264.527.234.381.323.264.528h.704l.322.41.411.323.44.293.381.381.322.44.587.117.322.44.352.41.235.499.498.264.498.234.528.205.293.44.469.264.44.293.088.704.645.058.176.616.469.264.205.557.645.059.235.557.557.146.41.352.47.264.293.469.439.293-.029.763.733.029.088.674.411.323.263.469.44.322.616.118.205.557.44.293.557.205-.029.762.498.235.264.469.704.088.322.41.147.557.439.323.294.44.557.234.029.675.44.322.44.323.615.146.088.616.44.322.293.44.088.616.411.322.41.352.586.205.323.411.176.557.498.264.029.674.733.059.147.586.264.469.41.323.528.264.323.41-.118.762.675.147.058.616.264.469.381.351.264.47.293.439.616.206.205.498.118.586.293.411.674.176.323.41-.03.674.557.264.381.352-.029.674.674.176v.645l.235.469.586.235.264.469.235.469.234.469.264.469.499.294.146.527.528.294-.029.645.498.322.264.469.234.44.44.352.235.498.264.44-.059.674.498.323.176.498.528.293.264.469-.029.616.175.499.733.205v.615l.528.294.264.439-.088.675.205.469.645.264.235.469v.615l.381.382.352.41-.03.616.558.293-.03.616.411.381-.118.645.557.322.088.528.382.41.351.411.294.44.146.527.147.499.264.469v.586l.41.381v.587l.264.469.41.381.294.44.146.528-.117.615.322.44.059.557.586.323.176.498.088.528.293.439-.058.587.234.498.469.381.088.499.264.469.352.44-.176.645.674.293-.175.645.381.41.352.44-.147.616.059.528.615.351.235.469-.323.675.294.44.234.469-.059.586.294.469.205.469.234.499.499.381-.176.615.088.528.205.469.528.411-.176.586.059.528.058.557.616.352.176.498-.088.586.322.44.264.499-.41.645.615.381.206.498-.382.645.206.499.293.439.44.44-.381.645.469.44-.206.586.176.499.469.41.147.528.205.469.059.557-.117.557.322.469-.147.557.206.499-.118.586.147.498.088.528.293.469.205.499.294.469.117.528-.411.615.382.44.058.528-.088.557.088.527.147.499.205.498.293.499-.088.557v.528l.44.469-.176.557v.527l.029.528.499.469-.323.557.264.499-.322.586.498.469-.059.528.118.528-.088.527.058.528.147.528.352.498-.381.557.088.528.029.528.381.498.147.499-.469.586.205.498.293.499-.205.557-.088.528.205.527.235.499-.088.527.322.528-.117.528-.117.528.205.527-.469.557.146.499.176.527-.176.528.381.528-.088.528.088.527.059.528.029.528-.146.528.176.527-.381.528.175.528.147.528.059.527-.206.528z" fill="#FC3"/><path d="M1396.63 309l.24.598.13.599-.07.598-.36.598.4.599-.2.598-.3.598.36.599-.16.598.03.598-.13.599v.598l-.37.565.14.631-.1.566.23.631-.2.565-.17.599.2.631-.1.565.4.632-.63.565.17.598-.14.598-.2.565.24.632.16.632-.4.565.2.598.1.632-.23.565-.23.565-.17.598-.03.598-.1.599.16.598-.39.565.36.665-.17.565-.23.565.07.632.13.598-.66.532.03.598-.27.565.04.599.3.664-.14.599v.598l-.06.598-.3.532.03.632-.13.598.03.598-.53.499-.3.565.4.698-.13.565-.47.532-.17.565.04.598.16.665-.69.465.1.632.03.598.07.632-.17.598-.07.599-.63.465-.2.565.1.632-.03.598-.07.598-.43.532-.27.532-.06.598-.07.599-.17.598.17.665-.1.598-.43.499v.598l-.17.598-.33.499-.37.532-.16.565-.3.532.23.698v.631l-.73.399-.03.598v.632l.03.665-.36.498-.3.532-.17.565-.23.565-.43.499.23.698-.43.499.2.664-.5.466.06.665-.6.432.07.664-.36.499-.3.532.1.665-.57.432-.1.598-.4.499-.26.532.2.731-.7.332.06.698-.33.499-.43.465.3.765-.6.399-.27.531-.13.599-.16.565-.4.498-.37.499.13.698-.39.499-.07.598-.33.499v.664l-.8.3.1.731-.2.565-.17.565-.33.499-.6.365.13.732-.19.565-.27.565-.27.532-.79.265.03.698-.53.399.03.665-.3.532-.56.366v.698l-.27.532-.63.332.07.698-.3.532-.3.532-.47.399-.16.598-.2.565-.7.299-.1.632v.698l-.5.399-.33.498-.37.466-.43.465-.03.665-.17.598-.4.465-.5.399-.06.665-.5.366-.67.299.14.798-.3.531-.37.466-.6.332-.46.399v.731l-.6.3-.27.531-.03.732-.63.266.03.764-.56.332-.4.433-.07.698-.86.133-.34.498-.23.565-.33.499-.2.598-.6.299.07.765-.43.432-.74.199.04.765-.73.233-.2.565-.37.498-.43.399-.03.731-.74.2-.26.532-.53.332-.34.499-.03.764-.8.133-.16.599-.53.365v.765l-.54.332-.59.299-.04.765-.7.166-.33.499-.4.432-.36.465-.17.665-.7.199-.1.698-.66.2-.4.465-.23.598-.34.499-.63.233-.33.498-.6.266-.3.532-.36.465-.47.399-.36.466-.27.565-.76.133-.4.432v.831l-.53.299-.7.166-.27.598-.23.599-.63.199-.53.299-.47.399-.03.831-.4.432-.5.366-.57.266-.43.399-.23.631-.73.067-.2.698h-.8l-.36.499-.14.731-.66.133-.2.698-.6.233-.3.565-.56.265-.5.3-.54.332-.56.233-.43.432-.24.665-.56.232-.4.466-.36.498-.67.133-.4.466-.3.598-.6.199-.66.133-.13.798-.87-.166-.13.831-.8-.067-.26.632-.47.366-.43.432-.5.332-.4.499-.43.399-.6.166-.56.233-.34.565-.56.232-.7.1-.23.698h-.73l-.44.432-.36.499-.47.399-.4.432-.83-.133-.26.698-.37.498-.76-.066-.5.366-.4.398-.5.333-.53.332-.5.299-.57.233-.46.399-.63.133-.23.731-.54.299-.69-.033-.4.465-.64.133-.19.865-.74-.1-.49.332-.44.432-.43.466-.8-.133-.23.731-.8-.133-.4.466-.49.365-.57.166-.5.366-.63.067-.5.332-.4.499-.53.299-.53.266-.43.465-.77-.199-.5.332-.43.532-.6.099-.33.699-.76-.167-.4.466-.57.266h-.66l-.33.664h-.67l-.6.1-.5.333-.4.598-.66-.033-.43.531-.53.266-.64.034-.53.266h-.66l-.4.531-.57.233-.69-.133-.4.632-.6.133-.53.232-.5.333-.63.033-.63.066-.37.732-.6.133-.46.365-.74-.199-.53.299-.63.033-.46.399-.57.2-.46.498-.57.166-.53.299-.57.233h-.63l-.53.299-.7-.266-.53.366-.56.2-.57.199-.47.432-.69-.133-.5.366-.53.232-.64.067-.56.166-.57.133-.59.166-.47.466h-.63l-.67-.067-.46.532-.67-.199-.53.299-.6.033-.49.465-.64-.066-.46.631-.57.133-.66-.133-.6.034-.56.232-.57.233-.6.033-.5.432-.59.133-.64-.099-.66-.133-.53.266-.57.166-.53.432-.66-.166-.54.266-.53.365-.63-.1-.6.034-.66-.133-.57.166-.46.731-.67-.332h-.6l-.6.166-.59-.066-.5.664-.6.067-.6.033-.66-.332-.57.232-.56.167-.64-.034-.56.167-.53.465-.63-.1-.64-.233-.56.233-.53.532-.63-.266-.64-.066-.59.066-.57.166-.56.266-.64-.266-.59.034-.6.033-.53.631-.64-.166-.63-.299-.56.266-.57.465-.6.133-.63-.365-.56.332-.6.033h-.6l-.6-.133-.56.399-.63-.399-.6.333-.6-.233-.6.033-.6-.066-.6.399-.56.099-.63-.199h-.6l-.6.233-.56.133-.64-.466h-.59l-.6.1-.6.166-.6-.399-.6.266-.6-.066-.59.465-.6-.565h-.6l-.6.066-.6.034-.59.365-.6-.465-.6.332-.6.167-.6.066-.6-.133-.59-.199-.6.033-.57-.465-.6.033-.63.465-.56-.366-.6.034-.6.099h-.63l-.6.2-.56-.432-.64.332-.56-.432-.63.366-.57-.565-.6.099-.59-.033-.57-.233-.63.266-.6.067-.6-.299-.63.332-.56-.233-.57-.465-.6.233-.6-.233-.59.066-.6.067-.57-.499-.63.333-.6.033-.53-.565-.63.033-.57-.066-.56-.333h-.6l-.6-.066-.6-.067-.59-.033-.6-.033-.6-.067-.6-.033-.53-.432-.63.066-.57-.232-.66.432-.6-.067-.53-.398-.6-.067-.53-.366-.7.3-.47-.632-.56-.166-.67.133-.63.166-.53-.399-.6-.066-.53-.333-.63.067-.67.166-.43-.798-.7.465-.46-.598-.6-.1-.67.2-.53-.366-.56-.199-.67.199-.43-.731-.73.432-.57-.199-.49-.432-.7.199-.43-.632h-.64l-.53-.299-.66.133-.53-.266-.57-.199-.63-.033-.57-.2-.56-.1-.53-.398-.53-.2-.64-.1-.49-.332-.67.1-.56-.266-.5-.366-.57-.166-.6-.1-.63-.033-.36-.765-.6-.066-.57-.233-.5-.299-.59-.133-.6-.133-.57-.133-.6-.166-.56-.133-.47-.498-.59-.167-.7.2-.5-.366-.6-.1-.53-.265-.5-.366-.47-.465-.59-.133-.64-.034-.59-.099-.57-.233-.56-.233-.47-.365-.43-.499-.53-.266-.7.067-.6-.133-.46-.433-.64-.033-.43-.532-.4-.531-.7.066-.49-.299-.44-.532-.76.199-.57-.199-.49-.299-.3-.731-.7.033-.43-.499-.6-.099-.5-.366-.6-.133-.43-.432-.73.1-.37-.632-.43-.465-.73.133-.27-.732-.7-.033-.49-.299-.7.033-.43-.465-.6-.133-.33-.632-.67-.066-.37-.599-.43-.398-.8.166-.16-.864-.67-.1-.59-.166-.34-.565-.6-.167-.39-.498-.54-.299-.73.033-.56-.233-.23-.731-.44-.432-.83.199-.36-.532-.37-.565-.43-.399h-.73l-.34-.565-.53-.266-.43-.432-.83.166-.37-.531-.26-.632-.77.033-.16-.831-.87.167-.1-.832-.73-.066-.26-.598-.64-.166-.63-.133-.56-.3-.23-.664-.5-.3-.34-.565h-.76l-.3-.565-.56-.266-.2-.698-.57-.232-.5-.366-.6-.199-.36-.499-.67-.133-.13-.798-.83.067-.53-.299-.47-.366-.23-.665-.33-.532h-.77l-.06-.864-.83.067-.07-.832h-.8l-.23-.631-.7-.1-.5-.365-.2-.665-.63-.2-.13-.764-.63-.166-.6-.266-.27-.565-.36-.499-.27-.565-.56-.266-.64-.233-.26-.598-.4-.432-.57-.266-.36-.465-.3-.565-.76-.067-.14-.698-.26-.598-.5-.366-.53-.299-.7-.133-.1-.731-.4-.466-.63-.232-.07-.765-.73-.133-.37-.465-.46-.366-.43-.432-.2-.632-.4-.432-.73-.166-.14-.665-.59-.266-.1-.698-.6-.299-.2-.598-.6-.266-.47-.399-.13-.665-.36-.498-.27-.565-.83-.067-.43-.432-.3-.532-.14-.665-.36-.465-.5-.366-.2-.598-.33-.498-.5-.366-.56-.333-.24-.565-.36-.465-.44-.432-.29-.499-.47-.399-.27-.565-.59-.299-.07-.698-.7-.199-.07-.732-.23-.565-.3-.498-.56-.333-.2-.598-.3-.532-.27-.532-.33-.498-.53-.333-.13-.664-.57-.333-.6-.332.1-.765-.8-.166-.29-.532-.4-.465-.1-.632-.44-.465-.23-.532-.46-.432v-.698l-.24-.565-.39-.465-.34-.466-.16-.631-.73-.233-.44-.432-.26-.532-.24-.565-.36-.499-.4-.432.2-.831-.5-.399-.2-.598-.5-.366-.53-.399-.13-.598-.37-.499.07-.698-.53-.398-.5-.433.23-.797-.73-.266-.37-.499-.23-.532v-.698l-.16-.598-.54-.399.14-.731-.44-.432-.49-.432-.4-.466.1-.731-.63-.332-.04-.665-.33-.499-.47-.432v-.665l-.53-.432.1-.698-.2-.565-.4-.465-.1-.632-.69-.332.06-.665-.23-.565-.3-.532.1-.665-.5-.432-.1-.632-.63-.365.33-.798-.86-.299.4-.798-.83-.299v-.665l-.17-.565-.47-.465-.09-.599.09-.698-.19-.531-.54-.466-.4-.465.3-.765-.1-.598-.36-.499v-.631l-.23-.565-.5-.432-.37-.532-.36-.499.3-.731-.2-.565-.34-.499-.13-.598-.6-.432.43-.765-.13-.598-.26-.532-.77-.399v-.598l-.23-.565.13-.665-.23-.565-.1-.598.07-.632-.44-.499-.23-.565-.2-.565-.2-.565-.1-.565.2-.698-.53-.465.2-.665-.3-.532-.2-.565-.56-.499.36-.698-.23-.565-.27-.532.14-.664-.37-.499.17-.665-.1-.598-.77-.432.5-.731-.17-.566-.63-.465-.13-.598.3-.665-.43-.532-.17-.565.13-.631-.43-.532.23-.665-.3-.532.2-.665-.13-.565-.23-.565v-.631l-.23-.566.13-.598-.2-.598.07-.598-.7-.499.33-.665-.4-.532-.17-.598.3-.632-.3-.565.34-.664-.47-.532-.13-.599-.1-.565.03-.598.1-.632-.36-.565-.14-.565.27-.631-.17-.599-.2-.565.24-.631.03-.599-.13-.598-.5-.565v-.598l.3-.632-.24-.565-.19-.598.29-.599-.23-.598.13-.598-.03-.599.13-.598-.16-.598-.2-.599.13-.598-.43-.598.53-.598.03-.599-.09-.598-.37-.598-.07-.599-.13-.598.53-.598.07-.599-.4-.598-.03-.598-.17-.599.07-.598.36-.598-.33-.599.47-.598-.07-.598-.07-.599-.13-.598.36-.598-.46-.599.4-.598.1-.598-.1-.598-.43-.599.23-.598.03-.598v-.599l-.03-.598.26-.565-.03-.632.03-.598.24-.565-.47-.632.33-.565.04-.598-.1-.632.43-.565-.43-.631.63-.532-.4-.632-.03-.631.2-.565.3-.565-.34-.632v-.598l.37-.565.1-.599.07-.598.33-.565-.04-.598-.36-.665.56-.532-.03-.598-.23-.632.5-.532-.34-.665.67-.498.07-.598-.44-.665.14-.599.03-.598.1-.565.13-.598.04-.599.16-.598.5-.499-.33-.664.6-.499.2-.565-.54-.731.17-.565.37-.532.33-.565.03-.599-.03-.598.5-.532-.04-.598.3-.532-.3-.698.5-.499.17-.565.06-.598-.06-.632.23-.565-.07-.631.47-.499.23-.565-.36-.698.56-.465.27-.565-.17-.665.27-.532.23-.565.27-.565.03-.598.07-.599.36-.498.03-.632.04-.632.2-.531-.1-.665.63-.432-.03-.632.56-.465-.1-.632.33-.532.17-.598-.13-.665.36-.498.43-.499-.26-.698.66-.399-.06-.665-.04-.664.34-.499.36-.499-.03-.664.07-.599.63-.432.23-.532.33-.498-.3-.765.7-.365.27-.532.03-.632.2-.565.3-.532.4-.498-.33-.765.79-.332-.36-.798.4-.465.26-.532.53-.432.14-.599.2-.565.13-.598.5-.432v-.665l.46-.432.04-.632.06-.631.7-.333-.13-.731.2-.565.4-.499.13-.565.43-.465.37-.499.4-.465-.14-.731.67-.333.33-.498v-.665l.1-.632.63-.332v-.698l.73-.266.14-.632.1-.598.36-.498.47-.433-.14-.764.5-.399.04-.665.49-.399.27-.531.37-.499.36-.465.27-.532.23-.565.53-.366-.06-.731.26-.565.5-.399.46-.399.24-.565.5-.399.1-.632.36-.465.3-.532.33-.498.14-.632.59-.332.4-.466.37-.432.07-.665.29-.532.67-.265v-.765l.73-.199.13-.632.1-.665.47-.399.63-.299.37-.465v-.731l.33-.499.6-.299v-.765l.79-.133.4-.465.3-.532.2-.565.37-.499.43-.398.53-.333v-.764l.67-.233.06-.731.2-.599.5-.365.3-.532.37-.465.56-.333.13-.631.93-.034.07-.698.63-.266.4-.465.33-.465.1-.732.37-.432.43-.432.53-.332.57-.299.3-.532.2-.632.36-.465.63-.233.44-.432.16-.665.5-.365.3-.499.3-.532.5-.399.5-.332.56-.299.27-.565.63-.2v-.864l.73-.1.13-.731.77-.033.4-.466.23-.598.33-.532.8-.066.3-.532.3-.565.33-.499.57-.299.36-.465.43-.399.4-.466.67-.133.4-.498.43-.399.33-.532.43-.399.3-.532.73-.099.17-.698.53-.299.4-.466.73-.066.5-.333.4-.465.33-.532.33-.532.44-.399.46-.365.47-.432.69-.067.54-.299.16-.731.53-.266.54-.333.49-.332.5-.299.3-.632.37-.498.43-.366.9.166.36-.498.43-.433.4-.498.54-.233.59-.199.17-.831.76.066.37-.498.67-.1.43-.465.26-.632.63-.133.3-.632h.74l.19-.764.87.199.33-.565.37-.532.6-.166.53-.299.26-.665.7-.066h.7l.3-.632.4-.498.56-.2.47-.399.43-.432h.7l.56-.232.34-.599.43-.465.53-.266h.7l.5-.299.53-.299.33-.632.7.067.63-.1.17-.931.79.166.27-.731.56-.199.5-.333.5-.365.7.066.5-.332.5-.366.43-.432.8.166.3-.698.59-.1.6-.166.63-.1.54-.232.26-.831.53-.233.6-.166.7.033.3-.698.56-.233.77.233.3-.798.6-.133h.63l.53-.332.6-.1.36-.631.74.166.36-.698.6-.067.46-.498.74.199.39-.565.74.2.33-.765.8.366.49-.333.5-.332.54-.299.69.066.37-.665.73.233.53-.299.5-.332.47-.466.73.2.5-.3.43-.531.6-.167.53-.266.53-.332.7.2.43-.566.73.3.37-.798.66.133.5-.399.6-.1.7.166.53-.199.43-.698.67.133.56-.166.6-.133.56-.2.6-.066.6-.067.5-.432.66.166.54-.266.56-.232.57-.233.46-.598.6-.067.53-.232.63-.034.7.266.6-.066.53-.2.53-.332.5-.465.7.232.6-.033.53-.332.5-.499.63.033.63.067h.6l.6-.067.53-.399.6-.099.53-.233.6-.133.56-.266.6.033.63.034.54-.432.56-.1.67.232.59-.033h.6l.6-.099.5-.566.66.333.54-.499.66.333.57-.266.59.033.6-.067.57-.365.6.066.53-.532.66.499.57-.233.56-.232.63.033.57-.199.56-.3.67.565.56-.398.6.066.57-.399.63.166.56-.232.64.266.56-.433.6-.099.6.166.6-.199.56-.2.63.233.57-.233h.6l.63.299.6.1h.59l.6-.133h.6l.6-.266.56-.066.64.199.56-.565.6.1.6.166.6-.166.59.133.6-.233.6-.133h.6l.6.166.6-.033.59.366.6-.466.6.067.6.232.6.266.59-.299.6-.266.6.299.6-.133.6-.099.6.033.59.565.6-.033.6.1.6-.366.6.233h.6l.63-.433.56.499.6-.366.6.499.6-.332.6.266h.59l.57.332.6-.033.63-.333.6-.166.56.465.6.3.63-.499h.6l.57.432.59-.1.57.333.63-.166.57.398.63-.265.6-.167.56.532.57.166.63-.232.53.432.7-.499.56.166.63-.066.54.366h.59l.6.166.53.399.64-.067.66-.299.5.465.56.3.7-.466.57.299h.6l.53.333.53.399.6.133.63-.167.66-.232.57.232.6.067.46.698.7-.399h.6l.5.532h.6l.53.399.56.199.73-.432.57.133.53.366.57.232.63-.066.6.133.5.365.63-.033.6.133.49.466.54.265.63-.066.66-.066.53.265.6.1.47.499.7-.166.59.033.44.698.56.133.67-.067.53.233.56.199.67-.099.43.665.56.132.54.333.59.1.6.099.67-.133.4.698.7-.199.53.299.53.266.5.432.6.1.53.233.73-.2.43.465.53.3.53.266.57.199.76-.266.54.233.33.798.56.199.73-.233.6.133.4.632.67-.033.36.664.8-.332.5.299.46.499.54.232.49.333.64.066.43.532h.63l.53.299.53.266.63.067.6.133.4.565.43.498.7-.133.53.333.6.133.33.665.8-.233.4.532.43.465.67-.033.56.232.5.366.43.465.74-.166.29.732.5.332.54.299.76-.166.3.731.53.233.5.365.63.067.53.266.5.332.63.133.5.299.5.366.47.399.43.432.43.432.7-.033.33.631.5.333.76-.133.54.299.49.332.47.399.3.665.73-.033.33.565.4.465.5.366.7.033.6.133.33.599.53.265.43.433.37.498.5.366.63.133.63.166.37.465.39.499.47.366.76-.034.24.698.36.499.87-.133.16.798.4.399.47.399.89-.2.3.565.37.532.43.432.5.299.6.266.43.366.3.598h.8l.36.466.47.365.5.333.43.432.36.498.67.133.36.499.4.465.27.565.56.299.57.266.6.233.33.499.53.299.5.332.1.798.73.066.2.698.53.3.24.631.73.067.26.631.63.166.47.399.53.299.33.532.5.333-.03.864.83.033.1.765.47.365.29.532.5.366.7.133.23.631.5.333.63.232-.03.865.57.266.3.531.79.1.37.465.17.632.49.366.34.498.63.266.03.765.5.365.5.366.7.166.1.698.49.366.34.498.1.699.46.365.47.399.66.233.37.465.2.632.56.299.04.764.83.067.16.665.3.531.47.366.6.299.36.466-.13.864.76.166.07.698.3.532.43.399.3.532.33.498.7.233.23.565.14.665.33.465.76.2.37.465-.03.764.63.3.43.399-.03.764.76.199v.732l.27.532.66.266.3.531.27.532.26.532.3.532.57.332.16.599.6.332-.03.731.56.366.3.532.27.498.5.399.26.565.3.499-.07.764.57.366.2.565.6.333.3.531-.04.698.2.566.83.232v.698l.6.333.3.498-.1.765.23.532.74.299.26.532v.698l.43.432.4.465-.03.698.63.333-.03.698.46.432-.13.731.63.366.1.598.43.465.4.466.33.498.17.599.17.565.3.531v.665l.46.432v.665l.3.532.47.432.33.499.16.598-.13.698.37.499.06.631.67.366.2.565.1.598.33.499-.07.665.27.565.53.432.1.565.3.532.4.498-.2.732.76.332-.2.731.44.466.4.498-.17.698.07.599.69.399.27.531-.37.765.34.499.26.531-.06.665.33.532.23.532.27.565.56.432-.2.698.1.598.24.532.59.466-.2.664.07.599.07.631.7.399.19.565-.1.665.37.499.3.565-.47.731.7.432.24.565-.44.732.24.565.33.498.5.499-.44.731.54.499-.24.664.2.566.53.465.17.598.23.532.07.632-.13.631.36.532-.16.632.23.565-.13.664.16.566.1.598.33.532.24.565.33.532.13.598-.46.698.43.499.07.598-.1.631.1.599.16.565.23.565.34.565-.1.632v.598l.5.532-.2.631v.599l.03.598.57.532-.37.631.3.565-.37.665.57.532-.07.598.13.599-.1.598.07.598.17.599.4.565-.44.631.1.599.04.598.43.565.17.565-.54.665.24.565.33.565-.23.632-.1.598.23.598.26.565-.09.599.36.598-.13.598-.14.599.24.598-.53.631.16.566.2.598-.2.598.43.599-.1.598.1.598.07.598.03.599-.16.598.2.598-.44.599.2.598.17.598.07.599-.24.598z" fill="#64B4FA"/></g></svg>
