<svg width="52" height="40" fill="none" xmlns="http://www.w3.org/2000/svg"><path d="M43.084 1.81l-.62 3.61-.27 3.647-.172 3.653-.778 3.602-.366 3.632.022 3.676-.41 3.729-3.613.401-3.53.313-3.545.074-3.537.127-3.545.022-3.53.29-3.538-.052-3.537.29-3.537.082-3.545-.186-3.455-.104.321-3.535.344-3.624.599-3.587 1.114-3.475.404-3.624 1.017-3.498.523-3.475 3.56-.655 3.732-.194 3.717-.29 3.717-.312 3.702-.447 3.747.12 3.716-.328 3.732.052 3.725-.12 3.724-.371.112.558z" fill="#C8E3FA"/><path d="M8.578 30c-.015 0-.03-.186-.045-.186-.591-.03-.599.164-1.19.134l-1.181-.06c-.59-.03-.59.045-1.182.023-.576-.022-.568-.097-1.144-.112-.576-.014-.568-.081-1.144-.096s-.569-.238-1.137-.26c-.277-.008-.553.051-.74-.15-.187-.208-.232-.483-.21-.759.045-.513-.037-.52.015-1.027.045-.52.232-.498.277-1.012.045-.513-.03-.52.015-1.027.045-.513.097-.506.15-1.02.044-.513.067-.513.112-1.019.045-.513.104-.506.15-1.02.044-.513-.21-.535-.143-1.049.082-.61.157-.602.262-1.205.097-.61.27-.58.366-1.19.098-.611.09-.611.195-1.221.007-.045-.105-.112-.09-.157.18-.565.135-.58.314-1.146.18-.565.135-.58.314-1.146.18-.565.36-.52.479-1.101.127-.58.052-.595.12-1.183.067-.588-.128-.61-.06-1.198.067-.588.276-.566.336-1.154.023-.045.03-.09.045-.149.165-.573.21-.558.374-1.13.165-.574-.127-.656.037-1.229.165-.573.502-.484.629-1.071.127-.559.015-.58.097-1.154.082-.566.217-.55.299-1.116.082-.566-.052-.588.03-1.154.06-.424.381-.647.808-.722.59-.111.598-.074 1.196-.178.591-.112.584-.156 1.182-.268.59-.112.553-.32 1.152-.432.044-.007.097-.03.142-.03.62-.03.635.202 1.256.172.62-.03.613-.127 1.242-.164.62-.03.62 0 1.241-.045.531-.037.516-.2 1.04-.245.53-.045.538.082 1.069.044.516-.052.524-.044 1.047-.081.53-.045.523-.06 1.055-.105.53-.044.538.097 1.069.052.53-.044.53-.03 1.062-.074.53-.045.5-.35 1.032-.402.613-.06.613-.022 1.226-.097.614-.074.644.194 1.257.12.613-.075.576-.387 1.189-.462.052-.007.127 0 .18 0 .613.022.605.156 1.218.179.614.022.621-.127 1.234-.112.614.015.606.26 1.22.238.613-.015.59-.23 1.203-.29.614-.052.621.045 1.227-.007.606-.052.606-.12 1.211-.172.038 0 .083.29.113.29.62.008.62-.007 1.241 0 .62.008.62-.007 1.242 0 .62.008.62-.104 1.249-.111.613-.007.605-.134 1.219-.156.613-.023.62.104 1.234.09.613-.016.613-.038 1.226-.075.613-.038.613.007 1.227-.06.613-.06.59-.283 1.196-.342.613-.06.636.149 1.242.082.508-.06 1.01.253 1.114.759.052.275-.142.32-.09.595.023.12.3.23.277.35-.105.595-.053.603-.15 1.198-.104.595-.381.543-.486 1.139-.105.595-.15.595-.224 1.19-.068.596.21.625.164 1.22-.044.603-.216.589-.261 1.191-.045.603.134.61.097 1.213-.038.603-.157.596-.187 1.199-.03.602-.015.602-.037 1.213-.03.602.112.61.082 1.22 0 .052-.247.082-.262.134-.127.588-.09.595-.217 1.19-.127.589-.21.574-.336 1.162-.128.587.134.64.044 1.235-.09.58-.052.58-.112 1.168-.06.588-.291.566-.351 1.154s.045.595.015 1.183c-.03.603.104.595.112 1.206.007.602-.33.602-.322 1.212.008.603.322.603.322 1.206 0 .037-.112.082-.112.127-.068.617-.262.595-.33 1.22-.067.618.188.648.113 1.273-.075.625-.262.602-.33 1.22-.052.469-.35.774-.822.826-.598.067-.576.313-1.174.38-.606.067-.606.052-1.204.119-.606.067-.62-.127-1.227-.067-.59.06-.568.253-1.159.305-.59.052-.605-.075-1.196-.023-.591.053-.584.201-1.174.231-.599.03-.606-.067-1.212-.06-.606.016-.598.112-1.204.127s-.598.023-1.204.037c-.584.015-.591-.074-1.174-.052-.584.023-.584.105-1.175.127-.583.022-.598-.23-1.181-.223-.59.014-.59-.052-1.174-.045-.591 0-.591.03-1.182.03-.59 0-.598-.023-1.181 0-.584.022-.569.297-1.145.342-.583.045-.583.06-1.166.112-.584.044-.591-.03-1.175.022-.03 0-.074.082-.104.074-.584-.014-.584-.03-1.16-.037-.583-.007-.575-.29-1.159-.297-.583-.008-.59.044-1.166.059-.584.022-.576.127-1.16.179-.583.052-.59-.03-1.166.015-.584.052-.576.14-1.16.17-.598.03-.598-.066-1.203-.059-.599.015-.599.134-1.197.149-.598.015-.598.022-1.204.03-.008-.008-.015.06-.022.06zm-5.841-2.418c.433.409.53.178 1.129.2.598.023.606-.178 1.204-.156.583.023.59.03 1.174.06.591.03.591-.052 1.182-.023.59.03.576.127 1.166.134.584.008.584.053 1.167.038.583-.015.591.208 1.174.193.584-.015.584-.186 1.167-.216.576-.03.583-.007 1.16-.052.575-.052.575-.134 1.15-.178.577-.052.6.134 1.175.089.03 0 .052-.082.09-.082.583.008.583.06 1.159.067.583.008.583.022 1.167.037.583.008.59.09 1.174.075.583-.023.568-.283 1.151-.328.584-.044.584.015 1.167-.037.584-.045.598.12 1.174.075.023 0 .038-.015.06-.015.59-.008.59-.127 1.182-.127.59 0 .59-.052 1.181-.06.591 0 .591-.044 1.182-.052.583-.014.59.097 1.174.082.583-.022.583-.037 1.167-.06.583-.021.576-.215 1.166-.23.591-.015.599.194 1.19.186l1.189-.03c.59-.015.598.052 1.196.023.576-.03.554-.358 1.13-.41.575-.052.605.246 1.181.194.576-.052.569-.127 1.144-.179.464-.044.479.075.943.023.463-.053.448-.194.912-.246.464-.052.688.283 1.017-.052.337-.342.127-.543.18-1.02.052-.476 0-.483.06-.96.052-.476-.135-.49-.113-.974.03-.603-.022-.596-.022-1.199-.008-.602.232-.602.224-1.205-.007-.603-.097-.603-.104-1.206 0-.037.022-.067.03-.104.06-.603-.098-.625-.038-1.228.06-.61.187-.595.254-1.198.06-.61.068-.603.127-1.213.008-.037-.007-.074 0-.112.128-.588.262-.558.39-1.138.127-.588.142-.58.269-1.168.127-.588-.135-.633-.06-1.228.075-.588.075-.58.105-1.176s.299-.58.321-1.176c.03-.595-.3-.61-.262-1.206.038-.61.053-.61.097-1.227.045-.61.18-.603.225-1.213.045-.61-.105-.626-.06-1.236 0-.03.21-.044.21-.082.082-.483-.098-.513-.016-.99.083-.483.18-.46.27-.945.082-.483.546-.565.15-.855-.532-.387-.599-.209-1.257-.142-.658.067-.65.097-1.309.15-.471.036-.463.036-.942.051-.471.015-.471.149-.942.164-.48.015-.472.134-.95.149-.479.015-.479-.097-.958-.097-.62.007-.62.03-1.241.015-.62-.008-.62-.075-1.241-.082-.621-.007-.614.186-1.234.208-.614.023-.621-.156-1.227-.096-.613.052-.606.119-1.219.17-.613.053-.628-.148-1.241-.096-.038.008-.068.283-.113.283-.613-.022-.613.037-1.219.015-.613-.023-.598-.298-1.211-.32-.613-.023-.62-.082-1.234-.06-.62.015-.598.298-1.204.372-.606.075-.628-.096-1.234-.022-.606.074-.584.268-1.19.327-.53.052-.545-.081-1.076-.044-.531.044-.531.06-1.062.104-.531.045-.524.179-1.055.223-.53.045-.553-.2-1.084-.156-.531.045-.531.082-1.062.126-.539.045-.539-.037-1.077.008-.538.045-.516.35-1.047.387l-1.226.074c-.614.03-.629-.2-1.242-.163-.613.037-.606.133-1.219.2-.471.053-.441.187-.905.268-.463.082-.523-.238-.994-.156-.48.09-.472.097-.8.44-.33.334-.135.356-.203.818-.067.461-.261.431-.329.893-.067.461.187.498.12.96-.007.044-.202.052-.217.096-.164.566-.164.574-.329 1.14-.165.572.067.64-.097 1.205-.165.573-.225.543-.337 1.123-.12.58-.269.551-.336 1.139-.068.588.134.61.067 1.198s-.194.573-.262 1.169c-.007.066.098.17.075.238-.18.565-.262.543-.441 1.108-.18.566-.09.603-.27 1.169-.179.565-.209.55-.343 1.13-.143.574-.195.56-.292 1.14-.097.587-.015.602-.112 1.183-.097.588-.382.543-.456 1.13-.068.5-.098.5-.15 1.006-.045.498-.022.506-.067 1.004-.045.499-.053.499-.098 1.005-.044.498.202.528.157 1.027-.044.506.06.55-.09 1.034-.141.491-.523.55-.156.9z" fill="#023866"/><path d="M46.764 6.38l-.584 3.617-.247 3.646-.261 3.647-.255 3.646-.553 3.625-.374 3.631-.426 3.49-3.38.335-3.5.573-3.56-.09-3.516.462-3.544-.089-3.538.208-3.53.35-3.537.164-3.545-.075-3.537-.163-3.56-.067.5-3.617.3-3.624.696-3.565.65-3.572.823-3.535.778-3.542.605-3.52 3.672-.23 3.672-.708 3.732-.17 3.702-.47 3.747.097 3.71-.327 3.724-.238 3.724-.172 3.725-.29 3.731.134-.044.44z" fill="#C8E3FA"/><path d="M16.004 34.733c-.598.008-.598-.312-1.204-.327-.606-.015-.606-.008-1.204-.015-.606-.015-.598.007-1.204-.015-.591-.022-.606.275-1.197.246-.59-.03-.598 0-1.189-.03-.59-.03-.583-.328-1.174-.35-.59-.022-.598.283-1.182.276-.59-.015-.583-.18-1.174-.194-.59-.015-.59-.12-1.174-.127-.284-.007-.53-.067-.718-.282-.187-.216-.142-.462-.105-.745.083-.602-.03-.617.053-1.22.082-.603.06-.603.142-1.206.082-.602-.075-.617-.008-1.227.068-.596.21-.58.262-1.169.052-.595-.022-.603.023-1.198.052-.595 0-.603.044-1.198 0-.037.24-.037.247-.075.112-.595-.09-.632.03-1.227.112-.596.067-.603.187-1.198.112-.596.314-.559.426-1.154.113-.595-.044-.618.06-1.213.112-.595.33-.55.441-1.146.113-.595-.037-.618.083-1.213.127-.603.261-.566.404-1.168.142-.596.037-.618.18-1.22.141-.596.29-.566.433-1.162.134-.588-.008-.617.127-1.205.127-.588.157-.58.284-1.176.127-.588-.03-.618.09-1.213.112-.573.329-.536.426-1.116.097-.58.023-.596.12-1.169.097-.58-.105-.61-.008-1.19.083-.462.629-.834 1.092-.864.598-.037.598-.052 1.197-.089.598-.037.606-.007 1.204-.045.598-.037.606.015 1.204-.06.606-.074.583-.185 1.189-.297.606-.119.613-.074 1.212-.186.605-.119.598-.156 1.196-.275.045-.008.12.141.165.141.613-.03.613-.022 1.226-.045.613-.03.613-.126 1.227-.156.613-.03.628.179 1.241.127.613-.052.613-.082 1.227-.157.613-.074.598-.17 1.211-.245.613-.075.606-.112 1.22-.186.052-.008.096-.127.149-.127.613.015.613.097 1.226.112.614.015.621-.156 1.234-.141.613.014.606.052 1.22.037.613-.023.62.223 1.233.163.614-.052.606-.096 1.22-.148.613-.052.613 0 1.226-.045.62-.045.62-.007 1.249-.045.628-.037.62-.156 1.241-.193.628-.037.628-.022 1.25-.06.62-.037.627.03 1.248 0 .62-.03.62-.022 1.249-.052.628-.03.606-.29 1.234-.335.613-.037.613-.03 1.226-.074.614-.052.629.119 1.242.074.613-.052.598-.245 1.219-.29.037 0 .09.134.127.134.62.022.628-.104 1.249-.082.62.023.62.112 1.241.142.621.022.629-.082 1.25-.06.276.008.508.313.687.521.18.208.45.469.42.744-.023.216-.083.216-.098.432 0 .022-.254.015-.254.037-.098.595-.075.595-.165 1.19-.097.596-.045.603-.142 1.199-.097.595-.135.595-.202 1.19-.067.544-.03.551-.067 1.095-.038.543-.023.543-.06 1.086s0 .55-.037 1.094c-.038.543-.06.543-.098 1.086-.037.544.128.558.09 1.102-.037.543-.194.536-.232 1.079-.037.543.075.55.038 1.094-.038.543-.023.55-.06 1.094-.038.543-.21.535-.247 1.079-.037.543.18.558.135 1.109 0 .03.045.074.037.096-.09.603-.351.566-.441 1.169-.09.602.15.64.06 1.242-.09.603-.277.573-.352 1.184-.075.595-.105.595-.172 1.19-.06.596.127.618.067 1.22-.06.596-.336.574-.403 1.17-.068.587.239.617.172 1.205-.075.588-.412.543-.486 1.131-.075.588.097.603.022 1.19a.985.985 0 01-.89.864c-.56.052-.546.238-1.107.29-.56.052-.568.022-1.13.074-.56.053-.582-.133-1.143-.059-.576.074-.591 0-1.16.09-.575.096-.523.379-1.099.476-.576.096-.628-.231-1.204-.134-.06.007-.097.193-.157.193-.576-.015-.576-.171-1.152-.186-.583-.015-.583.171-1.166.156-.584-.015-.584-.149-1.16-.119-.575.03-.568.12-1.144.194-.576.074-.59-.075-1.167 0-.575.074-.545.275-1.121.35-.053.007-.112.104-.165.104-.583-.015-.583-.03-1.166-.038-.584-.014-.576-.282-1.16-.297-.583-.015-.59-.06-1.174-.052-.583.007-.59.03-1.166.067-.584.037-.569.305-1.152.342-.583.037-.591-.127-1.174-.074-.584.044-.584.074-1.16.134-.583.06-.583.044-1.166.104s-.569.193-1.152.238c-.598.045-.606-.156-1.204-.127-.598.03-.62-.104-1.219-.022-.65.067-.613.35-1.219.357zm-9.43-2.508c.38.477.493.26 1.099.276.606.015.606-.008 1.211.015.591.022.591.015 1.19.044.598.03.605-.275 1.204-.245.598.03.59.007 1.189.03.583.022.575.305 1.159.32.583.014.59-.283 1.181-.276.584.015.584.201 1.167.194.576-.008.583.081 1.16.052.575-.03.575-.082 1.151-.112.576-.03.59.112 1.167.067.583-.045.568-.171 1.151-.23.584-.06.576-.082 1.16-.142.583-.06.56-.246 1.144-.29.59-.045.606.126 1.204.089.598-.037.59-.112 1.189-.149.598-.037.59-.09 1.19-.126.029 0 .059.23.089.23.576.015.583-.193 1.159-.178.576.015.583-.03 1.16-.023.575.015.575.254 1.158.224.576-.03.554-.231 1.13-.305.576-.075.605.148 1.174.074.568-.074.553-.208 1.13-.283.051-.007.104.12.156.12.576.014.576-.09 1.152-.075s.576.171 1.152.186c.575.015.583-.067 1.159-.104.576-.038.576-.067 1.144-.164s.538-.268 1.107-.357c.568-.097.598.119 1.174.044.658-.081.65-.14 1.309-.208.658-.067.68.082 1.211-.305.367-.268.09-.32.142-.766.053-.447.045-.454.098-.901.052-.447.09-.447.142-.893.067-.603.075-.603.142-1.206.06-.602-.008-.61.052-1.213.06-.602.09-.602.165-1.205.074-.603.052-.61.142-1.213.09-.603.254-.58.344-1.183.09-.603.12-.603.194-1.213.06-.544-.06-.551-.022-1.094.037-.544.224-.529.261-1.072.038-.543.03-.543.075-1.094.038-.543-.06-.55-.022-1.094.037-.543.007-.55.045-1.094.037-.543-.082-.55-.045-1.101.037-.543.12-.536.157-1.087.037-.543-.135-.558-.097-1.101.037-.55.037-.543.082-1.094.037-.55.314-.528.352-1.072 0-.03-.038-.06-.03-.089.082-.491.142-.476.216-.967.083-.492.113-.484.187-.975.083-.491.397-.685.03-1.02-.47-.431-.658-.052-1.301-.074-.643-.023-.643-.12-1.286-.112-.591.022-.599.052-1.212.104-.613.045-.59.32-1.204.372-.613.053-.613.038-1.226.075-.629.037-.636-.142-1.264-.112-.629.03-.621.223-1.242.253-.628.03-.635-.111-1.256-.082-.62.038-.606.164-1.227.201-.62.038-.62-.052-1.241-.015-.62.038-.613.134-1.227.186-.613.045-.628-.14-1.241-.089-.613.052-.598.23-1.212.29-.613.053-.62-.007-1.234.045-.037.008-.082-.238-.12-.246-.613-.014-.613.008-1.218-.007-.613-.015-.613.037-1.227.022-.613-.015-.62-.074-1.226-.044s-.613.082-1.212.156c-.606.074-.606.09-1.211.171-.606.075-.599.112-1.204.186-.03 0-.053-.015-.083-.015-.605.03-.598.194-1.211.216-.606.03-.614-.126-1.227-.097-.605.03-.605.097-1.211.164-.606.075-.591.134-1.197.246-.598.119-.636-.052-1.234.067s-.56.327-1.159.439c-.045.007-.097.067-.142.067-.479.03-.494-.231-.972-.201-.479.03-.464.275-.943.305-.478.03-.62-.424-.98-.104-.35.305-.127.454-.209.915-.082.454.113.491.03.945-.082.454-.344.41-.434.863-.12.603.18.663.045 1.258-.134.595-.463.528-.598 1.124-.135.595.037.632-.097 1.235-.135.595-.142.588-.277 1.183-.135.596.037.633-.097 1.228-.135.596-.187.58-.307 1.176-.12.58-.276.55-.381 1.139-.105.588-.202.573-.314 1.16-.105.588.187.64.074 1.229-.112.587-.44.528-.553 1.108-.112.588.067.625-.052 1.213-.112.588-.3.558-.382 1.154-.082.588.135.617.083 1.213-.053.595-.143.588-.195 1.183-.052.595.015.603-.052 1.198-.075.64-.12.618-.322 1.228-.18.603-.306.73.097 1.235z" fill="#023866"/><path fill-rule="evenodd" clip-rule="evenodd" d="M50.256 14.603l.501-3.624-.104-.536-.738.064-3.002-.064-3.724.127-3.717.454-.24.017-3.484.027-2.46.094-1.28-.064-1.86.145-1.864.034-3.717.32-3.71.35-3.716.342-1.794.36-1.93.168.19.2-.512 3.432-1.092 3.49-.531 3.595-.613 3.579-.913 3.52-.351 3.624-.554 3.721 3.68-.045h3.537l3.538-.067 3.537-.163 3.545.26 3.53-.312 3.545-.015 3.515-.566 3.537-.119 3.53-.23 3.575-.246.486-3.669.307-3.64.403-3.638.12-3.662.479-3.624.351-3.639z" fill="#fff"/><path fill-rule="evenodd" clip-rule="evenodd" d="M29.856 28.552c.127.068.231.124.38.124a.95.95 0 01.223.04c.12.031.236.062.3.012.23-.13.334-.198.445-.27.099-.064.204-.132.408-.251.219-.124.306-.22.395-.316.087-.095.175-.191.39-.317.223-.126.317-.21.414-.297.092-.083.186-.167.394-.29.22-.128.343-.167.467-.205.12-.038.242-.076.453-.197.05-.03.086-.073.123-.116.018-.022.036-.043.056-.063.22-.223.331-.333.441-.443.11-.11.221-.22.442-.443.22-.223.321-.342.422-.461.101-.119.202-.238.423-.461.248-.252.373-.345.518-.453.112-.084.236-.176.439-.358.201-.185.307-.299.401-.401.124-.133.229-.247.504-.47l.081-.064c.03.072.069.153.12.25.153.283.248.404.348.532.091.116.187.238.333.495.145.25.166.408.188.564.021.159.043.315.194.567.14.233.25.336.355.434.12.11.23.215.37.496.195.394.237.503.335.76.033.089.074.194.129.334.108.276.157.415.206.555.048.14.097.279.205.554.014.031.007.076 0 .122-.008.053-.016.107.008.139.176.254.313.346.451.44.137.092.275.186.454.438.152.214.237.339.312.45.102.15.187.274.398.562.169.234.206.387.243.538.038.156.075.31.258.548.172.225.317.305.456.38.15.083.293.161.456.416.162.257.157.427.153.603a1.05 1.05 0 00.124.596c.142.27.22.396.301.524.077.123.155.248.29.503.02.035.079.05.138.064.053.013.107.026.131.055.207.236.32.341.434.449.101.094.204.19.373.377l-.077.018c-.13.03-.258.06-.52.078a4.888 4.888 0 00-.536.056 5.525 5.525 0 01-.504.056c-.258.018-.387.046-.516.074-.129.028-.258.056-.516.075h-.011l-1.028.074c-.268.02-.4-.016-.536-.053-.13-.034-.263-.07-.519-.059a1.788 1.788 0 00-.582.117 1.731 1.731 0 01-.592.114 1.83 1.83 0 01-.594-.063c-.15-.037-.3-.075-.595-.063-.314.008-.46.018-.618.029-.137.01-.283.02-.556.03a.173.173 0 00-.06.026.171.171 0 01-.06.026c-.288.045-.442.015-.594-.015-.152-.03-.304-.06-.587-.014-.282.044-.422.077-.562.11a6.36 6.36 0 01-.575.113c-.124.02-.221.038-.302.053-.291.051-.385.068-.835.103-.267.02-.408.064-.54.104-.154.047-.295.09-.604.09-.293 0-.439.01-.584.022a6.396 6.396 0 01-.575.022c-.276.004-.42.016-.558.028-.15.012-.294.024-.594.024a.542.542 0 00-.021.006c-.018.005-.032.01-.054.01-.288.025-.437-.03-.587-.086-.15-.056-.3-.112-.587-.086-.288.026-.428.072-.568.119-.14.047-.28.093-.569.12-.257.022-.4.056-.53.087-.16.038-.303.072-.622.076a2.507 2.507 0 01-.641-.06c-.128-.026-.269-.055-.518-.074a3.041 3.041 0 01-.58-.094c-.143-.035-.285-.07-.571-.092a3.224 3.224 0 01-.572-.09c-.143-.033-.285-.066-.573-.089a.212.212 0 00-.077.024c-.024.01-.047.02-.065.02-.291.016-.437.032-.583.05a7.91 7.91 0 01-.583.048c-.292.014-.44 0-.587-.015-.148-.015-.296-.03-.587-.015-.274.014-.42.028-.556.04a9 9 0 01-.611.042 1.137 1.137 0 00-.582.17c-.147.081-.29.16-.585.165-.328.008-.474.007-.642.006-.131-.001-.276-.002-.532.001-.292.004-.44-.056-.587-.115a1.31 1.31 0 00-.587-.116c-.296 0-.443-.013-.591-.026-.148-.013-.295-.026-.59-.026-.296 0-.444.037-.592.075-.147.037-.295.074-.59.074-.299 0-.447.046-.596.092-.146.045-.294.09-.586.094a1.062 1.062 0 01-.604-.161c.042-.055.08-.1.118-.144.09-.107.18-.213.321-.454.147-.253.235-.36.33-.472.082-.1.17-.205.306-.42.138-.219.174-.351.208-.481.037-.136.072-.27.226-.495.132-.194.184-.321.23-.437.06-.146.112-.273.308-.493.19-.222.324-.28.471-.343.124-.054.257-.111.441-.275.202-.178.283-.291.363-.405.08-.114.16-.227.363-.406.03-.027.09-.03.152-.035.073-.005.148-.01.177-.054.146-.23.174-.374.202-.517.028-.143.056-.287.202-.517.152-.241.272-.324.397-.41.115-.08.234-.162.388-.372.143-.192.21-.31.27-.416.075-.133.14-.25.336-.477.17-.197.264-.294.356-.389.099-.1.195-.199.377-.414.01-.012.045-.01.078-.008.032.002.064.004.071-.007.157-.224.208-.356.258-.488.05-.132.101-.264.258-.487.154-.219.193-.359.231-.496.04-.144.08-.285.248-.509.17-.225.31-.295.45-.366.138-.069.277-.138.447-.356.172-.22.22-.359.27-.498.048-.14.097-.28.269-.499a.177.177 0 01.063-.042c.028-.013.055-.026.071-.055.135-.249.18-.385.225-.52.045-.136.09-.272.224-.521a2.32 2.32 0 01.318-.465c.17.172.248.28.328.391.09.123.18.247.394.46.015.015.007.057 0 .097-.008.04-.015.078 0 .09.24.19.364.279.49.368.125.09.25.178.49.368.239.19.383.253.527.316.144.064.288.127.527.317.24.19.368.273.497.357.13.084.259.167.498.357a.176.176 0 01.044.072c.011.027.022.054.045.07.24.133.331.247.423.36.092.114.183.227.423.361.235.134.385.142.535.15.15.007.302.014.541.148.236.13.345.216.453.301.108.086.217.172.452.302.238.13.371.172.502.215.133.043.264.085.5.216l.062.033zm17.48 6.194c0-.053.003-.11.011-.177.03-.238.06-.355.09-.472.03-.117.06-.235.09-.473.03-.24-.007-.365-.044-.49a1.07 1.07 0 01-.046-.484c.03-.296.117-.44.203-.582.087-.144.174-.287.2-.587a1.623 1.623 0 00-.048-.61c-.038-.153-.075-.306-.049-.603.026-.296.066-.443.105-.59.04-.149.079-.298.105-.6.029-.291.031-.444.034-.59a5.74 5.74 0 01.04-.624c.034-.301.075-.45.117-.599.04-.149.082-.297.116-.599.03-.274.064-.423.095-.562.037-.165.071-.315.091-.643a1.092 1.092 0 00-.118-.619c-.07-.152-.14-.306-.128-.602.01-.301.054-.452.097-.602.043-.151.086-.302.097-.603.011-.302.019-.452.026-.603.008-.15.015-.301.026-.603a.163.163 0 00-.01-.048c-.006-.017-.012-.034-.012-.049a21.4 21.4 0 01.09-.602c.024-.151.048-.302.09-.603.04-.295.085-.442.13-.587.047-.15.093-.3.131-.611.046-.338.057-.489.07-.663.01-.136.02-.285.05-.55l.055-.476v-.001c.025-.204.042-.345.08-.721.03-.302-.012-.459-.053-.614a1.466 1.466 0 01-.052-.607c.035-.348.057-.495.084-.677.02-.128.042-.274.073-.521.029-.24.032-.367.034-.488.003-.13.006-.255.04-.51.034-.248.083-.368.131-.487.01-.02.018-.042.026-.064l-.052.046c-.227.193-.368.261-.505.328-.143.07-.283.137-.512.342-.241.22-.334.347-.433.482-.088.12-.182.248-.39.455-.224.22-.351.313-.478.406a3.759 3.759 0 00-.479.405 7.04 7.04 0 01-.463.42c-.12.101-.24.202-.464.421-.02.02-.06.007-.102-.005-.039-.012-.078-.024-.1-.01a1.67 1.67 0 00-.44.44 1.664 1.664 0 01-.45.446c-.252.18-.395.247-.539.314a3.07 3.07 0 00-.538.311c-.294.21-.395.322-.522.463-.09.1-.191.213-.383.386-.427.383-.448.407-.77.775l-.09.103c-.202.227-.321.328-.44.427-.12.103-.24.205-.45.443-.2.226-.314.332-.426.437-.116.11-.23.216-.441.456-.02.02-.05.021-.08.022-.026 0-.052.002-.07.016a1.543 1.543 0 00-.287.293l.01.064c.023.157.046.315.187.58.105.194.17.318.226.423.097.185.162.309.358.642.149.266.247.383.348.502.096.113.194.23.34.48.151.254.212.392.27.527.061.138.12.274.276.53.013.02.037.03.061.042.03.013.057.026.066.054.108.272.194.395.28.517.086.123.172.246.28.518.103.255.1.417.098.57a1.05 1.05 0 00.142.605c.207.385.276.482.435.705.054.076.118.165.2.285.168.243.295.331.425.421.125.087.252.175.42.405.186.256.284.368.388.487.093.106.19.219.36.444.18.238.283.347.386.457.102.11.205.22.385.458.019.022-.025.083-.07.144-.043.06-.087.12-.072.146.133.254.22.371.307.488.089.12.177.238.314.502.168.327.252.434.372.588.071.091.156.2.278.38.148.214.204.353.255.481.063.156.119.297.328.538.07.08.13.14.185.191zM10.26 36.304a1.16 1.16 0 00-.149.4c-.093-.203-.031-.346.053-.539.06-.136.13-.298.164-.524.047-.313.1-.471.153-.625.056-.164.11-.324.153-.662a9.3 9.3 0 00.068-.697c.008-.12.017-.26.037-.487.026-.289.01-.44-.006-.588a2.5 2.5 0 01-.001-.602c.018-.176.028-.3.037-.404.02-.244.031-.373.105-.78.042-.235.055-.382.066-.51.017-.189.03-.34.128-.68.087-.262.159-.395.226-.519.078-.143.15-.275.23-.583.077-.296.12-.44.164-.585.042-.14.085-.28.158-.56.004-.016.034-.025.063-.034.03-.01.06-.019.064-.034.047-.284.062-.434.077-.58.017-.158.033-.31.088-.625.052-.302.028-.46.003-.618-.024-.158-.048-.316.004-.617.054-.307.062-.457.07-.614.01-.147.018-.3.065-.592.048-.292.143-.428.236-.563.095-.137.19-.273.235-.568.045-.294.026-.447.007-.6-.018-.152-.037-.304.008-.598.064-.458.087-.555.158-.85l.074-.311c.134-.58.134-.58.314-1.146.087-.287.16-.42.236-.556.072-.133.146-.267.235-.546.085-.28.082-.436.08-.59-.003-.158-.006-.315.084-.6.007-.023.016-.042.026-.06a.228.228 0 00.027-.074 2.49 2.49 0 00.03-.465 2.49 2.49 0 01.03-.466c.033-.23.12-.334.205-.439.04-.047.079-.095.113-.154.04.039.083.082.13.132.212.222.26.39.307.557.048.17.095.338.314.56.211.213.377.26.543.308.164.048.33.095.541.302.213.208.298.336.382.465.084.128.168.257.381.465.2.199.32.29.435.376.126.096.247.187.463.413.22.23.294.371.371.517.073.138.147.279.347.502.205.231.284.369.362.506.079.138.157.276.363.506l.275.311c.17.193.254.289.555.605.178.19.309.27.433.334a2.152 2.152 0 01-.227.312 2.244 2.244 0 00-.303.448 1.24 1.24 0 00-.153.513 1.051 1.051 0 01-.191.544c-.12.18-.187.294-.245.393-.091.154-.159.27-.369.537-.17.218-.325.276-.478.334a.895.895 0 00-.472.335c-.168.226-.217.361-.267.5a1.756 1.756 0 01-.248.483c-.174.246-.267.345-.373.457-.086.09-.18.19-.33.384-.143.183-.219.292-.286.39-.09.131-.166.24-.373.48-.18.209-.273.31-.366.41-.093.1-.187.2-.366.409-.016.02.025.078.064.136.037.054.073.107.063.125-.139.213-.231.31-.321.406-.095.1-.188.198-.33.427-.16.257-.26.339-.38.439-.09.073-.192.157-.338.327-.15.18-.213.3-.268.41-.072.14-.133.26-.36.461-.202.179-.309.26-.415.342a6.661 6.661 0 00-.415.343c-.028.024-.092.024-.157.024-.074 0-.149 0-.172.035-.161.238-.187.395-.213.551-.027.156-.053.313-.214.55-.156.232-.266.334-.374.432a1.933 1.933 0 00-.381.454 3.532 3.532 0 00-.291.531 4.731 4.731 0 01-.24.466c-.14.242-.201.37-.262.495-.063.13-.124.256-.269.503zm3.2-24.444a14.88 14.88 0 01-.133.012c-.382.03-.74.223-.875.58-.134.356-.15.867.116 1.15-.01.1-.024.219-.049.39-.041.28-.05.422-.06.565-.01.142-.019.285-.06.567-.037.234-.05.375-.06.499-.017.176-.03.317-.104.64-.07.301-.186.424-.307.551-.112.119-.228.24-.314.513-.09.283-.1.435-.112.588a2.2 2.2 0 01-.112.588c-.09.282-.12.43-.15.576-.03.147-.06.294-.15.577a.175.175 0 01-.04.064c-.02.021-.038.043-.042.07-.044.298-.091.443-.138.588-.047.145-.093.29-.138.588-.045.297-.09.443-.135.588-.045.145-.09.29-.135.588-.043.287-.053.437-.063.583-.01.156-.02.307-.071.615a8.57 8.57 0 00-.077.57 7.482 7.482 0 01-.088.613c-.05.306-.096.45-.143.6a3.84 3.84 0 00-.141.568c-.042.253-.056.398-.069.528a4.62 4.62 0 01-.103.648c-.062.288-.026.451.01.611.037.166.074.329-.002.625-.075.29-.116.435-.158.58-.04.145-.082.29-.157.58-.074.29-.172.42-.269.551-.097.13-.194.26-.269.55a.314.314 0 01-.04.076.252.252 0 00-.042.089c-.026.294-.003.446.02.596.024.155.047.308.017.61-.026.294.007.446.04.597.032.154.065.307.035.608-.027.302-.128.441-.232.583-.1.137-.202.277-.24.57a2.087 2.087 0 00-.006.459c.01.124.02.243-.016.486-.038.238-.022.359-.006.482.016.119.032.24-.001.47-.034.235-.079.347-.124.459a1.7 1.7 0 00-.123.457c-.034.23-.049.348-.064.465-.015.117-.03.235-.063.465-.045.29.142.521.336.745.195.215.397.334.688.334 0 0 .008.201-.015.18.302-.005.454-.034.606-.064.153-.03.306-.06.614-.063.306-.004.46-.002.613 0 .153.001.306.003.613 0 .302-.004.453-.01.605-.015.153-.006.306-.012.614-.015.3 0 .45.02.599.04.148.021.296.042.59.042.3 0 .45.015.599.03.148.014.296.03.59.03.301 0 .45 0 .6-.002.148 0 .296-.003.59-.006.299-.004.446-.065.594-.127.148-.061.295-.123.594-.126.3-.004.447-.032.595-.06.148-.028.295-.056.595-.06.292-.003.443.079.593.16.153.083.304.164.603.153.289-.011.429-.1.57-.191.141-.09.283-.18.574-.196.292-.015.438.01.584.034.145.024.291.048.583.033.306-.012.452.016.607.047.137.026.282.054.552.057.28.004.427-.047.57-.097.153-.053.3-.104.604-.081.295.019.437.07.58.121.142.051.284.102.572.124.315.02.458.036.614.053.134.015.277.031.545.052.029.003.06.03.09.058.031.029.063.057.09.053.291-.026.435-.048.58-.07.143-.023.287-.045.579-.071.292-.026.432-.09.572-.153.14-.063.28-.126.572-.152.276-.022.42-.055.558-.087.152-.035.297-.069.601-.084.299-.016.447.06.598.139.144.075.292.15.577.15.291 0 .437-.04.583-.081.146-.041.291-.082.583-.082s.438.015.584.03c.145.015.291.03.583.03.023 0 .049-.013.076-.026.024-.011.048-.023.073-.026a2.33 2.33 0 01.574-.028c.15.009.3.017.593-.032.285-.048.422-.12.557-.19.138-.073.274-.144.565-.19.126-.02.224-.038.307-.052h.001c.298-.053.401-.07.851-.111.234-.021.376-.04.498-.056a6.06 6.06 0 01.676-.056c.294-.007.444.057.592.121.15.065.297.128.59.117.3-.011.446-.033.597-.055.141-.02.287-.042.57-.056.256-.012.379-.08.503-.148a1.02 1.02 0 01.499-.15c.249-.015.377 0 .504.013.132.014.26.028.52.01.262-.016.387-.04.516-.063.122-.023.247-.046.494-.064.223-.013.348-.018.461-.022.145-.005.27-.01.556-.03a.878.878 0 01.517.12c.134.069.267.136.523.118.254-.019.379-.04.504-.06.126-.02.25-.04.505-.06.254-.018.378-.066.501-.115.124-.048.247-.096.501-.115.479-.03.703-.387.763-.863.041-.31.1-.46.157-.61.058-.151.116-.302.157-.61.041-.31.034-.468.026-.626-.007-.158-.015-.316.026-.625l.057-.415c.035-.256.053-.383.1-.82.027-.267.045-.414.06-.547.02-.169.038-.315.068-.651.026-.302.088-.449.15-.596.061-.147.123-.294.149-.595.025-.286.03-.437.034-.58.005-.159.01-.31.04-.626a2.36 2.36 0 00-.009-.611c-.02-.157-.04-.312-.005-.617.033-.3.065-.452.097-.602.032-.151.064-.302.097-.603.034-.301.036-.454.038-.607a5.29 5.29 0 01.037-.606c0-.011.035-.022.071-.034.035-.01.071-.022.071-.033.011-.302-.043-.454-.097-.607-.054-.152-.109-.305-.097-.606.01-.302.035-.452.06-.603a4.24 4.24 0 00.06-.603c.012-.342.034-.488.061-.66.02-.131.043-.278.065-.538.022-.253.027-.4.031-.532.006-.181.011-.33.06-.68.04-.302.124-.444.209-.585.084-.141.168-.283.209-.584.042-.307.004-.465-.034-.626a1.544 1.544 0 01-.04-.61c.032-.287.064-.434.096-.577a4.756 4.756 0 00.117-1.2 4.51 4.51 0 01.025-.619c.03-.292.03-.444.031-.591a4.9 4.9 0 01.037-.614c.037-.303.118-.444.2-.587.08-.142.163-.285.204-.59a1.226 1.226 0 00-.064-.628c-.053-.16-.105-.32-.063-.621.04-.302.093-.449.145-.596.053-.147.105-.294.146-.595.006-.042.025-.086.045-.13.029-.067.058-.135.045-.197a.56.56 0 00-.107-.26.59.59 0 01-.11-.254c-.09-.513-.516-.886-1.04-.84-.306.025-.463.007-.62-.012a2.636 2.636 0 00-.621-.011 6.084 6.084 0 00-.398.05c-.09-.007-.164-.016-.237-.024a5.901 5.901 0 00-.6-.04 2.827 2.827 0 01-.576-.068c-.157-.033-.306-.063-.62-.06-.314.004-.47.075-.627.147-.153.07-.308.14-.614.151-.31.011-.468-.028-.625-.067a1.935 1.935 0 00-.624-.067c-.31.011-.464.077-.617.142-.153.065-.307.13-.617.141-.015.004-.034-.062-.053-.127-.019-.063-.037-.126-.052-.126-.3.037-.45.07-.6.104a5.421 5.421 0 01-.611.104c-.307.038-.458.066-.61.093a8.603 8.603 0 01-.61.093c-.319.04-.472.04-.635.04-.147 0-.301 0-.59.027-.326.032-.477.026-.641.018a4.786 4.786 0 00-.348-.005 2.645 2.645 0 00-.208-.005c-.194.002-.327.03-.437.069-.073.016-.135.034-.198.053a2.48 2.48 0 01-.6.109c-.22.016-.36.035-.477.055a7.846 7.846 0 01-.145-.012 4.86 4.86 0 00-.641-.021c-.304.007-.46-.01-.611-.028a3.604 3.604 0 00-.63-.024c-.311.01-.464.031-.618.052-.153.02-.306.04-.617.052-.224.008-.368 0-.489-.014a6.788 6.788 0 01-.068-.023c-.151-.052-.303-.104-.61-.12-.022 0-.042.025-.063.05-.014.016-.028.032-.043.041-.05.003-.093.007-.133.013-.24.007-.38-.036-.52-.08a1.462 1.462 0 00-.624-.075 1.74 1.74 0 00-.448.083.93.93 0 00-.15-.01c-.236.005-.353.06-.471.116a.99.99 0 01-.471.116c-.223.003-.342-.011-.453-.024-.128-.016-.245-.03-.497-.014-.268.018-.41.009-.545 0-.15-.01-.291-.02-.584.008-.292.023-.43.046-.574.07-.057.01-.114.02-.182.03a3.708 3.708 0 00-.568-.003c-.304.022-.454.102-.603.182l-.028.016c-.073.011-.16.022-.267.032-.286.023-.422.046-.564.07l-.193.031c-.11-.007-.198-.029-.286-.05-.164-.04-.327-.08-.632-.028-.303.052-.447.12-.59.19-.11.052-.22.104-.4.15l-.105.01-.558.051a1.516 1.516 0 01-.564-.04 1.517 1.517 0 00-.565-.041c-.283.022-.417.083-.553.144a1.48 1.48 0 01-.546.146c-.281.026-.425-.004-.569-.034-.142-.03-.285-.06-.56-.033-.3.024-.438.042-.588.061a13.47 13.47 0 01-.52.058c-.02 0-.035.013-.051.026a.11.11 0 01-.046.026c-.295.06-.452.037-.61.015a1.547 1.547 0 00-.609.015 8.197 8.197 0 00-.575.136c-.146.04-.292.079-.591.14-.296.059-.443.08-.591.103-.131.02-.262.04-.496.085zm2.304 1.577a.448.448 0 00-.03.206c.015.499.175.583.432.717.152.08.339.178.548.392.197.202.295.316.387.424.105.122.202.236.429.462.426.424.426.424.86.848.225.224.312.348.405.48.083.119.17.243.365.45.197.206.314.308.423.403.128.11.245.212.467.46.206.231.293.361.381.492.088.13.176.26.382.49.208.235.36.306.513.379.15.07.301.142.511.366.196.205.274.332.35.456.08.131.16.26.376.474.21.209.329.296.449.384.12.087.239.174.448.383.196.195.28.316.36.431.091.13.176.252.41.462.142.124.237.21.316.28.168.152.264.238.574.486.252.198.345.31.448.435.087.105.18.218.383.399.266.206.401.279.556.363.119.064.25.135.46.277.477.32.514.34.96.587l.095.053c.27.149.417.2.565.253.148.052.295.104.564.253.218.12.335.253.436.37.15.17.269.306.634.314.307.009.39-.155.487-.349.075-.15.16-.32.365-.44.236-.137.382-.16.528-.182.146-.022.291-.044.527-.182.205-.12.338-.166.458-.208.155-.055.288-.102.53-.29.272-.217.362-.344.469-.493.08-.112.17-.237.353-.423.212-.215.29-.35.37-.486.08-.138.16-.276.378-.496.205-.208.306-.323.404-.434.106-.12.208-.235.433-.46.011-.01.047 0 .085.011.04.012.08.023.095.012.245-.202.38-.281.52-.363.132-.077.268-.156.504-.344.24-.197.354-.303.468-.41a8.91 8.91 0 01.467-.409c.256-.21.345-.34.441-.48.084-.123.173-.252.382-.45.266-.256.356-.37.473-.52.08-.102.172-.22.342-.41.208-.232.336-.328.463-.422.13-.095.257-.19.464-.426a2.45 2.45 0 01.468-.419c.13-.093.26-.186.467-.422.024-.024.036-.058.047-.09.013-.039.026-.076.058-.096.254-.183.4-.248.546-.313.146-.065.291-.13.546-.312a1.16 1.16 0 00.411-.495c.079-.157.157-.313.411-.495.247-.177.426-.2.6-.222.186-.024.365-.047.612-.255.258-.216.35-.346.452-.488.086-.12.178-.25.386-.45.225-.22.297-.369.37-.517a1.57 1.57 0 01.362-.51c.239-.232.371-.318.513-.41.125-.082.257-.167.475-.363.155-.143.335-.196.492-.243.14-.042.263-.078.33-.168l-.1-.006c-.167-.011-.334-.022-.663.008-.014 0-.03-.032-.044-.064-.015-.031-.03-.063-.045-.063-.307-.004-.46.067-.614.138-.153.07-.306.141-.613.137a1.485 1.485 0 01-.61-.124 1.446 1.446 0 00-.616-.121 7.64 7.64 0 00-.73.018c-.125.008-.271.018-.504.026-.33.012-.48.046-.644.082-.14.032-.292.066-.575.09a3.99 3.99 0 01-.617.01 4.742 4.742 0 00-.228-.006c-.095.036-.21.066-.367.085-.22.027-.362.036-.482.04-.048.02-.092.042-.136.064-.153.075-.303.149-.616.164a.765.765 0 01-.42-.087l-.04.017c-.115.052-.229.103-.467.122a.817.817 0 01-.479-.097.817.817 0 00-.478-.096 2.903 2.903 0 01-.475.003 2.889 2.889 0 00-.475.004.805.805 0 00-.458.176.784.784 0 01-.462.174c-.018 0-.04-.02-.061-.042-.025-.023-.05-.048-.074-.048-.306-.014-.46-.024-.613-.033-.153-.01-.307-.019-.613-.034a4.903 4.903 0 01-.614-.063c-.153-.024-.306-.048-.613-.063a1.935 1.935 0 00-.64.06c-.145.034-.298.07-.586.074a1.741 1.741 0 01-.589-.084c-.055-.016-.108-.032-.168-.045a5.237 5.237 0 00-.447-.005c-.314.007-.47.046-.625.085-.15.038-.301.076-.597.085l-.012.001a2.408 2.408 0 01-.272.006c-.374.01-.46.013-.95.037l-.042.002a1.58 1.58 0 01-.454-.033 3.35 3.35 0 00-.118.045c-.15.06-.3.118-.61.137a7.287 7.287 0 01-.617.014 7.285 7.285 0 00-.617.015 11.36 11.36 0 00-.972.088c-.072.01-.155.02-.254.031-.324.036-.469.098-.622.165-.137.059-.282.121-.567.17a4.796 4.796 0 01-.614.071c-.155.01-.31.019-.613.07-.31.054-.465.059-.624.063-.151.005-.306.01-.602.057-.014.003-.029.014-.044.025-.018.013-.037.027-.054.027-.269.018-.402.044-.534.07-.133.027-.266.053-.535.071-.27.019-.408-.037-.546-.093a1.063 1.063 0 00-.546-.093c-.27.019-.398.09-.527.16-.13.07-.258.142-.527.16a1.536 1.536 0 01-.547-.048c-.137-.034-.273-.067-.538-.048a1.433 1.433 0 01-.507-.076 2.212 2.212 0 01-.26.016c-.028 0-.056 0-.086.002z" fill="#023866"/></svg>
