<svg width="41" height="41" fill="none" xmlns="http://www.w3.org/2000/svg"><path d="M20.196 0C9.098 0 .103 8.996.103 20.093s8.995 20.093 20.093 20.093c11.097 0 20.093-8.996 20.093-20.093S31.293 0 20.196 0zm-4.919 28.421h-4.069V15.327h4.069v13.094zm-2.06-14.701c-1.285 0-2.116-.91-2.116-2.037 0-1.149.856-2.032 2.169-2.032 1.312 0 2.116.883 2.141 2.032 0 1.126-.829 2.037-2.194 2.037zm16.92 14.701H26.07v-7.256c0-1.69-.59-2.836-2.062-2.836-1.124 0-1.792.776-2.087 1.523-.109.266-.136.643-.136 1.018v7.55h-4.07v-8.917a87.36 87.36 0 00-.107-4.178h3.535l.186 1.819h.082c.535-.854 1.848-2.114 4.043-2.114 2.677 0 4.684 1.794 4.684 5.65v7.741z" fill="#337BB1"/></svg>
