<svg width="39" height="39" fill="none" xmlns="http://www.w3.org/2000/svg"><path d="M19.416 0C8.746 0 .096 8.651.096 19.32c0 10.67 8.65 19.32 19.32 19.32 10.669 0 19.32-8.65 19.32-19.32C38.736 8.651 30.085 0 19.416 0zM28.7 14.563c.013.203.013.414.013.621 0 6.331-4.821 13.624-13.632 13.624-2.716 0-5.235-.79-7.357-2.148.388.043.76.06 1.156.06a9.61 9.61 0 005.947-2.043 4.79 4.79 0 01-4.476-3.321c.737.108 1.401.108 2.16-.086a4.787 4.787 0 01-3.834-4.701v-.06c.634.357 1.38.577 2.16.608a4.793 4.793 0 01-2.134-3.985c0-.893.233-1.708.651-2.415a13.597 13.597 0 009.876 5.007c-.677-3.256 1.755-5.891 4.68-5.891a4.78 4.78 0 013.497 1.509 9.462 9.462 0 003.04-1.151 4.768 4.768 0 01-2.104 2.635 9.472 9.472 0 002.76-.747 10.037 10.037 0 01-2.403 2.484z" fill="#5DA8DC"/></svg>
