<svg width="1351" height="304" fill="none" xmlns="http://www.w3.org/2000/svg"><path fill="#fff" d="M0 0h1351v304H0z"/><path fill-rule="evenodd" clip-rule="evenodd" d="M214.468 66.859c12.164-2.903 24.582-2.423 35.737 3.609-2.27-1.241-4.127-3.897-5.88-6.404-.957-1.368-1.883-2.692-2.827-3.717a73.542 73.542 0 00-11.61-10.247c-16.682-11.836-48.659-16.303-62.086 3.635-6.107 9.085-4.214 23.244 8.809 24.254 8.006.632 16.041-2.762 23.939-6.098 4.7-1.985 9.351-3.95 13.918-5.032zm16.329 18.903c39.321 0 71.196 31.876 71.196 71.196 0 13.856-3.962 26.778-10.827 37.706-19.433 38.64-66.275 65.897-120.966 65.897-11.761 0-24.178-1.666-35.687-4.063-11.483-2.373-23.471-6.638-33.894-11.989-8.53-4.391-16.86-9.969-24.128-16.228-27.686-23.824-38.488-56.962-32.128-96.056.883-5.401 2.852-10.701 4.795-15.824.304-.793.626-1.584.948-2.375 1.689-4.141 3.38-8.288 2.384-12.844-.806-3.605-3.057-6.64-5.264-9.613-.836-1.128-1.666-2.246-2.409-3.384-4.896-7.496-9.994-23.648-4.316-31.876 8.127-11.837 24.885-3.81 31.346 5.426 3.23 4.619 8.884 15.749 4.896 24.077 5.023-5.072 15.219-7.622 22.059-7.647 11.962-.05 23.496 5.78 30.336 15.572 6.94 9.969 4.416 19.711-7.774 23.699-6.107 1.993-12.997 1.691-19.282.984-2.527-.285-5.352-1.255-8.25-2.25-7.12-2.443-14.686-5.04-19.385 1.972-4.089 6.083-6.209 14.941-5.603 22.21 1.59 18.979 24.531 28.67 41.34 25.49 18.171-3.432 28.645-16.354 39.068-30.462 16.128-21.831 36.873-41.592 62.969-47.145a70.492 70.492 0 0118.576-2.473z" fill="#1C96F8"/><path fill-rule="evenodd" clip-rule="evenodd" d="M563.785 84.813h24.481v128.613h-24.481V84.813zM401.807 196.845c-11.559 0-25.465-6.36-32.204-12.72l-10.6 17.162c9.818 9.06 25.44 14.461 41.643 14.461 25.844 0 40.305-12.922 40.305-29.882 0-23.143-21.402-27.383-37.403-30.462-10.423-2.12-17.742-4.24-17.742-10.02 0-5.401 5.805-8.682 14.663-8.682 11.357 0 21.957 4.821 27.56 10.802l9.843-16.783c-9.262-7.319-21.781-12.72-37.605-12.72-24.506 0-38.185 13.679-38.185 29.301 0 22.075 20.441 26.007 36.407 29.079l.239.046c10.6 2.12 18.701 4.417 18.701 10.979 0 5.779-5.022 9.439-15.622 9.439zm83.689 18.903c12.14 0 23.144-4.442 29.504-11.963v9.666h24.481v-60.167c0-26.803-19.484-35.283-40.684-35.283-14.664 0-29.302 4.644-40.684 14.663l9.262 16.38c7.9-7.345 17.162-11.004 27.182-11.004 12.341 0 20.443 6.183 20.443 15.622v12.922c-6.184-7.521-17.162-11.382-29.504-11.382-14.865 0-32.406 7.925-32.406 29.705 0 20.821 17.566 30.841 32.406 30.841zm9.843-44.369c7.9 0 15.622 2.701 19.661 8.102v11.559c-4.039 5.401-11.761 8.101-19.661 8.101-9.641 0-17.54-4.997-17.54-13.679 0-9.06 7.899-14.083 17.54-14.083zm206.12-2.12c0-30.462-18.904-51.283-46.666-51.283-28.342 0-48.204 21.805-48.179 48.76 0 29.907 21.402 48.987 49.744 48.987 14.462 0 29.1-4.442 38.362-12.922l-10.802-15.799c-5.981 5.779-16.203 9.262-24.885 9.262-15.824 0-25.263-9.843-26.803-21.604h69.229v-5.401zm-23.724-11.18h-45.883c1.161-9.237 7.723-20.62 22.941-20.62 16.203 0 22.361 11.761 22.942 20.62zm43.964 26.046c6.739 6.36 20.645 12.72 32.204 12.72 10.6 0 15.623-3.66 15.623-9.439 0-6.562-8.102-8.859-18.702-10.979l-.238-.046c-15.967-3.072-36.407-7.004-36.407-29.079 0-15.622 13.679-29.301 38.185-29.301 15.799 0 28.342 5.401 37.604 12.72l-9.842 16.783c-5.603-5.981-16.203-10.802-27.586-10.802-8.858 0-14.663 3.281-14.663 8.682 0 5.78 7.319 7.9 17.742 10.02 16.001 3.079 37.403 7.319 37.403 30.462 0 16.96-14.461 29.882-40.305 29.882-16.203 0-31.825-5.401-41.643-14.461l10.625-17.162zm131.92 29.326l19.66-63.448 19.661 63.448h26.02l28.343-93.128h-25.415l-17.364 62.666-20.443-62.666h-21.78l-20.443 62.666-17.364-62.666h-25.44l28.343 93.128h26.222zm168.891-56.71c0-12.922-6.74-16.96-17.36-16.96-9.441 0-16.962 5.401-21.202 10.979v62.666h-24.481V84.813h24.481v47.624c5.982-7.142 17.542-14.461 32.782-14.461 20.45 0 30.29 11.18 30.29 29.301v66.149h-24.48v-56.685h-.03zm75.21 59.007c12.14 0 23.15-4.442 29.51-11.963v9.666h24.48v-60.167c0-26.803-19.49-35.283-40.69-35.283-14.66 0-29.3 4.644-40.68 14.663l9.26 16.38c7.9-7.345 17.16-11.004 27.18-11.004 12.34 0 20.45 6.183 20.45 15.622v12.922c-6.19-7.521-17.17-11.382-29.51-11.382-14.86 0-32.4 7.925-32.4 29.705 0 20.821 17.56 30.841 32.4 30.841zm9.84-44.369c7.9 0 15.63 2.701 19.67 8.102v11.559c-4.04 5.401-11.77 8.101-19.67 8.101-9.64 0-17.54-4.997-17.54-13.679 0-9.06 7.9-14.083 17.54-14.083zm68.45-86.566h24.48v128.613h-24.48V84.813zm137.67 84.446c0-30.462-18.9-51.283-46.66-51.283-28.34 0-48.21 21.805-48.18 48.76 0 29.907 21.4 48.987 49.74 48.987 14.47 0 29.1-4.442 38.37-12.922l-10.81-15.799c-5.98 5.779-16.2 9.262-24.88 9.262-15.83 0-25.26-9.843-26.8-21.604h69.22v-5.401zm-46.66-31.8c16.2 0 22.36 11.761 22.94 20.62h-45.88c1.16-9.237 7.72-20.62 22.94-20.62z" fill="#17191B"/></svg>
